<?xml version="1.0" encoding="UTF-8"?>
<!DOCTYPE svg PUBLIC "-//W3C//DTD SVG 1.1//EN" "http://www.w3.org/Graphics/SVG/1.1/DTD/svg11.dtd">
<!-- Creator: CorelDRAW -->
<svg xmlns="http://www.w3.org/2000/svg" xml:space="preserve" width="7.6288mm" height="11.3243mm" version="1.1" style="shape-rendering:geometricPrecision; text-rendering:geometricPrecision; image-rendering:optimizeQuality; fill-rule:evenodd; clip-rule:evenodd"
viewBox="0 0 15.31 22.72"
 xmlns:xlink="http://www.w3.org/1999/xlink"
 xmlns:xodm="http://www.corel.com/coreldraw/odm/2003">
 <defs>
  <style type="text/css">
   <![CDATA[
    .fil0 {fill:white;fill-rule:nonzero}
   ]]>
  </style>
 </defs>
 <g id="Camada_x0020_1">
  <metadata id="CorelCorpID_0Corel-Layer"/>
  <path class="fil0" d="M7.67 9.27l-0.01 0c-0.62,0 -1.21,-0.12 -1.78,-0.36 -0.57,-0.24 -1.07,-0.58 -1.5,-1.01 -0.44,-0.44 -0.77,-0.94 -1.01,-1.51 -0.24,-0.57 -0.35,-1.16 -0.36,-1.78 -0.01,-1.26 0.53,-2.49 1.48,-3.38 0.89,-0.84 2.05,-1.28 3.18,-1.21 1.12,-0.06 2.26,0.39 3.15,1.22 0.94,0.9 1.48,2.13 1.47,3.38 -0,0.62 -0.12,1.21 -0.36,1.78 -0.24,0.57 -0.57,1.07 -1.01,1.51 -0.43,0.44 -0.93,0.77 -1.5,1.01 -0.57,0.24 -1.16,0.35 -1.78,0.35z"/>
  <path class="fil0" d="M7.64 22.72c-2.09,-0 -4.08,-0.47 -5.95,-1.4 -1.2,-0.6 -1.74,-1.08 -1.69,-1.52l0.57 -5.69c0,-0.9 0.34,-1.75 0.96,-2.47 0.61,-0.69 1.48,-1.21 2.44,-1.45 0.43,-0.11 0.86,-0.16 1.31,-0.16l4.93 0c1.2,0.07 2.31,0.53 3.13,1.28 0.82,0.75 1.28,1.75 1.28,2.79l0.68 5.65c0.05,0.44 -0.47,0.92 -1.65,1.52 -1.88,0.95 -3.87,1.43 -5.97,1.44l-0.04 0z"/>
 </g>
</svg>
