<?xml version="1.0" encoding="UTF-8"?>
<!DOCTYPE svg PUBLIC "-//W3C//DTD SVG 1.1//EN" "http://www.w3.org/Graphics/SVG/1.1/DTD/svg11.dtd">
<!-- Creator: CorelDRAW -->
<svg xmlns="http://www.w3.org/2000/svg" xml:space="preserve" width="265.68mm" height="162.018mm" version="1.1" style="shape-rendering:geometricPrecision; text-rendering:geometricPrecision; image-rendering:optimizeQuality; fill-rule:evenodd; clip-rule:evenodd"
viewBox="0 0 10472 6386.09"
 xmlns:xlink="http://www.w3.org/1999/xlink"
 xmlns:xodm="http://www.corel.com/coreldraw/odm/2003">
 <defs>
  <style type="text/css">
   <![CDATA[
    .fil2 {fill:black;fill-rule:nonzero}
    .fil5 {fill:aqua;fill-rule:nonzero}
    .fil1 {fill:#4B39B5;fill-rule:nonzero}
    .fil3 {fill:#D9D9D9;fill-rule:nonzero}
    .fil8 {fill:#F6F3E4;fill-rule:nonzero}
    .fil4 {fill:fuchsia;fill-rule:nonzero}
    .fil0 {fill:white;fill-rule:nonzero}
    .fil6 {fill:#FD6155;fill-rule:nonzero;fill-opacity:0.301961}
    .fil7 {fill:#FD6155;fill-rule:nonzero;fill-opacity:0.501961}
   ]]>
  </style>
 </defs>
 <g id="Camada_x0020_1">
  <metadata id="CorelCorpID_0Corel-Layer"/>
  <g id="_1883338667696">
   <path class="fil0" d="M9238.06 2599.3c-19.13,23.39 -43.97,41.4 -71.89,52.41 -5.67,3.14 -11.39,6.09 -17.12,8.87 -49.41,23.88 -103.51,36.01 -160.79,36.01 -0.01,0 -0.04,0 -0.05,0 -48.01,0 -98.34,-8.78 -150.02,-26.14 -312.26,9.68 -843.86,33.19 -1255.33,87.53l-29.5 178.94c-5.29,31.78 -19.04,61.36 -39.83,85.73l-79.57 93.46 6.91 133.67 202.07 111.02c37.95,20.81 66.86,54.84 81.31,95.75l58.95 167.48c17.48,49.77 11.93,104.11 -15.14,149.2 -27.12,45.17 -72.54,75.6 -124.63,83.51l-594.1 90.36c-3.55,0.55 -7.21,0.99 -10.95,1.32l-31.02 0c-35.99,-3.18 -70.37,-17.39 -98.15,-40.83l-147.02 -123.81c-26.88,-22.64 -46.18,-52.44 -55.87,-86.19l-201.15 -700.24c-8.42,1.22 -16.89,1.83 -25.37,1.83 -67.09,0 -129.35,-39.03 -158.6,-99.4l-5.74 -11.88c-11.67,0.78 -23.35,1.16 -35.05,1.16 -106.46,0 -206.43,-31.74 -289.14,-91.76 -103.47,-75.11 -168.62,-185.93 -183.38,-312.04 -15.39,-131.63 27.77,-267.63 118.42,-373.11 3,-3.5 6.06,-6.95 9.16,-10.37 -35.55,-75.69 -12.89,-166.35 54.25,-216.32 3.08,-2.3 81.23,-60.71 309.85,-239.4 88.6,-69.35 186.79,-146.54 291.76,-229.34 328.3,-259.34 856.09,-868.75 1087.75,-1142.99 50.35,-139.76 135.96,-206.41 201.19,-237.95 5.98,-2.89 12.08,-5.63 18.27,-8.2 25.65,-14.69 54.76,-22.85 84.5,-23.41 122.33,-18.38 312.77,16.33 561.12,255.41 200.56,193.07 397.93,479.19 555.74,805.67 157.83,326.5 259.46,658.92 286.18,936 33.08,342.7 -57.75,513.49 -148,598.03z"/>
   <path class="fil1" d="M7543.63 3536.56l45.49 129.24 -560.14 85.19 -135.1 -113.79 -240.37 -836.75c55.09,-13.61 125.81,-30.91 215.29,-52.48 93.31,-22.65 205.74,-49.4 344.68,-82.33l2.65 51.23 -227.27 65.29 11.44 39.85 218.04 -62.62 8.84 171.05 -225.85 64.87 11.44 39.85 216.61 -62.22 19.91 385.05c0.36,7.17 4.43,13.64 10.72,17.1l222.82 122.41 -280.1 11.31c-3.09,0.12 -6.11,0.94 -8.84,2.38l-131.38 69.34 19.35 36.66 127.22 -67.15 334.54 -13.51zm-1165.83 -1701.73c-151.74,118.36 -228.23,176.68 -256.79,198.29l370.03 765.47c34.71,-9.01 127.76,-32.74 314.9,-78.08l-428.14 -885.68zm2685.59 648.41c-104.05,50.3 -264.99,-18.39 -441.59,-188.38 -184.19,-177.3 -367.09,-443.5 -515.02,-749.52 -147.93,-306.02 -242.92,-614.71 -267.47,-869.18 -23.53,-244 22.65,-412.79 126.67,-463.08 22.34,-10.8 47.3,-16.12 74.5,-16.12 99.38,0 228.41,71.02 367.08,204.49 184.19,177.3 367.09,443.5 515.02,749.52 147.93,306.02 242.93,614.71 267.47,869.18 23.54,244.01 -22.64,412.81 -126.66,463.09zm-225.27 -1316.62c-224.5,-464.41 -567.51,-891.18 -752.77,-801.63 -115.11,55.65 -121.19,295.29 -16.31,640.91 4.75,16.07 9.95,32.31 15.25,48.74 42.34,129.9 96.74,263.89 161.69,398.23 64.98,134.43 136.22,260.35 211.75,374.26 9.59,14.41 19.2,28.44 28.65,42.18 0.01,0.01 0.02,0.02 0.03,0.03 0,0 0.01,0.01 0.01,0.01 176.58,254.85 342.71,397.06 459.05,397.06 19.21,0 37.05,-3.89 53.36,-11.77 185.31,-89.58 63.82,-623.55 -160.7,-1088.03z"/>
   <path class="fil2" d="M9231.32 2016.18c-25,-259.24 -121.39,-572.92 -271.41,-883.25 -150.01,-310.33 -335.97,-580.71 -523.6,-761.33 -170.61,-164.24 -326.17,-237.47 -444.47,-211.01 -1.11,-0.32 -2.21,-0.71 -3.39,-0.84 -6.56,-0.78 -13.06,1.77 -17.54,6.62 -7.85,2.65 -15.51,5.76 -22.98,9.38 -61.31,29.64 -105.26,89.44 -130.62,175.21 -258.78,307.32 -788.62,918.39 -1129.71,1187.82 -104.42,82.37 -202.76,159.69 -292.3,229.77 -234,182.89 -312.01,241.05 -312.76,241.62 -7.98,5.94 -10.6,16.7 -6.28,25.66l51.07 105.65c-30.52,19.54 -58.67,43.55 -83.12,72 -62.42,72.63 -92.27,165.09 -81.91,253.68 9.66,82.44 52.38,155 120.29,204.3 57.76,41.93 127.23,62.11 197.81,62.11 41.41,0 83.17,-7.04 123.17,-20.63l57.55 119.04c3.54,7.3 10.87,11.7 18.67,11.7 1.79,0 3.59,-0.23 5.38,-0.71 0.56,-0.15 35.69,-9.55 128.08,-32.55l242.53 844.27c1.13,3.95 3.42,7.49 6.57,10.14l147.11 123.9c3.75,3.17 8.49,4.87 13.35,4.87 1.04,0 2.07,-0.07 3.12,-0.24l594.16 -90.36c6.11,-0.92 11.47,-4.53 14.66,-9.83 3.18,-5.29 3.82,-11.72 1.78,-17.55l-58.9 -167.3c-1.7,-4.81 -5.1,-8.83 -9.57,-11.29l-278 -152.73 -14.57 -281.94 119.78 -140.69c2.45,-2.87 4.06,-6.34 4.67,-10.06l48.03 -291.38c442.62,-68.97 1075.24,-96.06 1415.5,-106.12 44.29,17.76 86.13,26.98 124.77,26.98 33.54,0 64.75,-6.79 93.17,-20.53 7.42,-3.59 14.57,-7.63 21.47,-12.1 6.65,-0.45 12.73,-3.96 16.26,-9.66 0.64,-1.05 1.06,-2.18 1.51,-3.31 94.18,-76.32 133.38,-243.68 110.64,-479.34zm-3124.36 621.73c-58.44,-42.41 -95.18,-104.76 -103.45,-175.56 -9.16,-78.24 16.47,-157.03 72.16,-221.83 20.67,-24.05 44.27,-44.59 69.81,-61.54l240.04 496.58c-94.5,30.7 -199.2,19.96 -278.56,-37.65zm384.09 160.67l-370.03 -765.47c28.56,-21.61 105.06,-79.94 256.79,-198.29l428.14 885.68c-187.15,45.34 -280.19,69.08 -314.9,78.08zm991.75 698.92l-280.1 11.31c-3.09,0.13 -6.1,0.95 -8.84,2.38l-131.38 69.34 19.35 36.66 127.22 -67.16 334.57 -13.5 45.49 129.24 -560.13 85.19 -135.1 -113.79 -240.37 -836.75c55.09,-13.61 125.81,-30.91 215.28,-52.48 93.32,-22.65 205.74,-49.4 344.68,-82.33l2.65 51.23 -227.28 65.29 11.44 39.85 218.04 -62.62 8.84 171.05 -225.85 64.87 11.44 39.85 216.61 -62.22 19.91 385.05c0.36,7.17 4.43,13.64 10.72,17.1l222.79 122.4zm-122.82 -598.31l-87.59 102.89 -17.89 -345.96c46.27,-10.33 96.68,-19.96 150.31,-28.92l-44.83 271.99zm1061.24 -408.75c-39.74,-20.16 -388.08,-211.78 -581.72,-814.35l-39.48 12.69c162.43,505.45 426.25,727.29 545.85,805.69 -390.12,21.69 -842.29,59.95 -1125.03,126.83 -146.9,34.8 -264.66,62.81 -361.81,86.38 -4.02,0.97 -7.92,1.9 -11.87,2.86l-435.93 -901.81c3.24,-2.54 6.3,-4.92 9.62,-7.52 89.6,-70.13 187.99,-147.47 292.45,-229.89 323.13,-255.25 812.72,-812.74 1086.08,-1134.93 -9.62,69.91 -10.21,151.6 -1.33,243.74 25,259.24 121.39,572.92 271.41,883.25 150.01,310.33 335.96,580.71 523.6,761.33 66.77,64.29 131.21,114.5 192.05,150.4 -104.99,3.48 -229.63,8.42 -363.9,15.32zm642.16 -7.21c-104.05,50.3 -264.99,-18.39 -441.59,-188.38 -184.19,-177.3 -367.09,-443.5 -515.02,-749.52 -147.93,-306.02 -242.92,-614.71 -267.47,-869.18 -23.53,-244 22.65,-412.79 126.67,-463.08 22.34,-10.8 47.3,-16.12 74.5,-16.12 99.38,0 228.41,71.02 367.08,204.49 184.19,177.3 367.09,443.5 515.02,749.52 147.93,306.02 242.93,614.71 267.47,869.18 23.54,244.01 -22.64,412.81 -126.66,463.09zm-978.04 -2118.25c-115.11,55.65 -121.19,295.29 -16.31,640.91 4.75,16.07 9.95,32.31 15.26,48.74 42.34,129.9 96.73,263.89 161.68,398.23 64.98,134.43 136.22,260.35 211.75,374.26 9.59,14.41 19.2,28.44 28.65,42.18 0.01,0.01 0.02,0.02 0.03,0.03 0,0 0.01,0.01 0.01,0.01 176.58,254.85 342.71,397.06 459.05,397.06 19.21,0 37.05,-3.89 53.36,-11.77 185.33,-89.59 63.83,-623.56 -160.69,-1088.03 -224.52,-464.41 -567.53,-891.18 -752.78,-801.63zm422.7 1462.64c-5.25,-7.71 -10.54,-15.53 -15.8,-23.44 -65.17,-98.29 -127.15,-205.73 -184.6,-319.99 -8.21,-16.33 -16.33,-32.78 -24.35,-49.38 -64.14,-132.66 -117.83,-264.9 -159.58,-392.99 -2.9,-8.99 -5.79,-17.94 -8.57,-26.85 279.9,-64.36 534.09,16.39 622.86,200.02 88.76,183.63 -5.77,433.09 -229.96,612.62z"/>
   <path class="fil3" d="M7254.49 2656.12c46.27,-10.33 96.68,-19.96 150.31,-28.92l-44.84 272 -87.59 102.89 -17.88 -345.97zm-1178.84 -415.6c-55.69,64.8 -81.32,143.58 -72.16,221.83 8.28,70.8 45.02,133.15 103.45,175.56 79.36,57.61 184.06,68.35 278.56,37.65l-240.04 -496.58c-25.53,16.95 -49.14,37.49 -69.81,61.54zm2345.57 249.93c134.27,-6.89 258.91,-11.83 363.88,-15.33 -60.83,-35.89 -125.27,-86.11 -192.05,-150.4 -187.64,-180.62 -373.58,-451 -523.6,-761.33 -150.02,-310.33 -246.4,-624 -271.41,-883.25 -8.88,-92.13 -8.29,-173.83 1.33,-243.74 -273.37,322.19 -762.95,879.68 -1086.08,1134.93 -104.46,82.41 -202.85,159.76 -292.45,229.89 -3.31,2.59 -6.37,4.97 -9.62,7.51l435.93 901.81c3.95,-0.95 7.85,-1.9 11.87,-2.86 97.15,-23.57 214.91,-51.58 361.81,-86.38 282.74,-66.87 734.92,-105.14 1125.03,-126.82 -119.61,-78.4 -383.42,-300.24 -545.85,-805.7l39.48 -12.69c193.66,602.58 541.99,794.2 581.73,814.36zm-137.93 -1055.62c8.02,16.6 16.14,33.05 24.35,49.38 57.45,114.27 119.43,221.7 184.6,319.99 5.27,7.92 10.55,15.72 15.8,23.44 224.19,-179.52 318.72,-428.98 229.96,-612.61 -88.76,-183.64 -342.96,-264.39 -622.86,-200.02 2.8,8.9 5.67,17.86 8.57,26.84 41.74,128.08 95.44,260.31 159.58,392.98z"/>
   <path class="fil4" d="M1428.56 1312.58l-566.63 0c-25.97,0 -49.73,-6.35 -71.27,-19.03 -21.54,-12.69 -38.66,-29.81 -51.35,-51.35 -12.69,-21.54 -19.03,-45.3 -19.03,-71.27l0 -424.97c0,-25.97 6.34,-49.73 19.03,-71.27 12.69,-21.54 29.81,-38.66 51.35,-51.35 21.54,-12.69 45.3,-19.03 71.27,-19.03l566.63 0 0 141.66 -566.63 0 0 424.97 566.63 0 0 141.66z"/>
   <path class="fil4" d="M2347.55 745.95l0 141.66c0,25.97 -6.35,49.73 -19.03,71.27 -12.69,21.54 -29.81,38.66 -51.35,51.35 -21.54,12.69 -45.3,19.03 -71.27,19.03l-141.66 0 141.66 141.66 141.66 0 0 141.66 -169.99 0c-20.07,0 -37.18,-7.08 -51.35,-21.25l-262.06 -262.06 -83.22 0 0 283.31 -141.66 0 0 -708.28 566.63 0c25.97,0 49.73,6.35 71.27,19.03 21.54,12.69 38.66,29.81 51.35,51.35 12.69,21.54 19.03,45.3 19.03,71.27zm-141.66 0l-424.97 0 0 141.66 424.97 0 0 -141.66z"/>
   <polygon class="fil4" points="3266.55,1312.58 2558.27,1312.58 2558.27,1170.92 2841.58,1170.92 2841.58,745.95 2558.27,745.95 2558.27,604.29 3266.55,604.29 3266.55,745.95 2983.24,745.95 2983.24,1170.92 3266.55,1170.92 "/>
   <path class="fil4" d="M4185.55 604.29l0 141.66 -566.63 0 0 141.66 424.97 0c25.97,0 49.73,6.35 71.27,19.03 21.54,12.69 38.66,29.81 51.35,51.35 12.69,21.54 19.03,45.3 19.03,71.27l0 141.66c0,25.97 -6.35,49.73 -19.03,71.27 -12.69,21.54 -29.81,38.66 -51.35,51.35 -21.54,12.69 -45.3,19.03 -71.27,19.03l-566.63 0 0 -141.66 566.63 0 0 -141.66 -424.97 0c-25.97,0 -49.73,-6.35 -71.27,-19.03 -21.54,-12.69 -38.66,-29.81 -51.35,-51.35 -12.69,-21.54 -19.03,-45.3 -19.03,-71.27l0 -141.66c0,-25.97 6.34,-49.73 19.03,-71.27 12.69,-21.54 29.81,-38.66 51.35,-51.35 21.54,-12.69 45.3,-19.03 71.27,-19.03l566.63 0z"/>
   <polygon class="fil4" points="5104.54,604.29 5104.54,745.95 4821.23,745.95 4821.23,1312.58 4679.57,1312.58 4679.57,745.95 4396.26,745.95 4396.26,604.29 "/>
   <path class="fil4" d="M5881.88 1312.58l-424.97 0c-25.97,0 -49.73,-6.35 -71.27,-19.03 -21.54,-12.69 -38.66,-29.81 -51.35,-51.35 -12.69,-21.54 -19.03,-45.3 -19.03,-71.27l0 -424.97c0,-25.97 6.34,-49.73 19.03,-71.27 12.69,-21.54 29.81,-38.66 51.35,-51.35 21.54,-12.69 45.3,-19.03 71.27,-19.03l424.97 0c25.97,0 49.73,6.35 71.27,19.03 21.54,12.69 38.66,29.81 51.35,51.35 12.69,21.54 19.03,45.3 19.03,71.27l0 424.97c0,25.38 -6.35,48.84 -19.03,70.38 -12.69,21.54 -29.66,38.81 -50.91,51.79 -21.25,12.99 -45.15,19.48 -71.71,19.48zm-424.97 -566.63l0 424.97 424.97 0 0 -424.97 -424.97 0z"/>
   <path class="fil5" d="M1536.39 1337.47l-566.63 0c-25.97,0 -49.73,-6.35 -71.27,-19.03 -21.54,-12.69 -38.66,-29.81 -51.35,-51.35 -12.69,-21.54 -19.03,-45.3 -19.03,-71.27l0 -424.97c0,-25.97 6.34,-49.73 19.03,-71.27 12.69,-21.54 29.81,-38.66 51.35,-51.35 21.54,-12.69 45.3,-19.03 71.27,-19.03l566.63 0 0 141.66 -566.63 0 0 424.97 566.63 0 0 141.66z"/>
   <path class="fil5" d="M2455.38 770.84l0 141.66c0,25.97 -6.35,49.73 -19.03,71.27 -12.69,21.54 -29.81,38.66 -51.35,51.35 -21.54,12.69 -45.3,19.03 -71.27,19.03l-141.66 0 141.66 141.66 141.66 0 0 141.66 -169.99 0c-20.07,0 -37.18,-7.08 -51.35,-21.25l-262.06 -262.06 -83.22 0 0 283.31 -141.66 0 0 -708.28 566.63 0c25.97,0 49.73,6.35 71.27,19.03 21.54,12.69 38.66,29.81 51.35,51.35 12.69,21.54 19.03,45.3 19.03,71.27zm-141.66 0l-424.97 0 0 141.66 424.97 0 0 -141.66z"/>
   <polygon class="fil5" points="3374.38,1337.47 2666.1,1337.47 2666.1,1195.81 2949.41,1195.81 2949.41,770.84 2666.1,770.84 2666.1,629.19 3374.38,629.19 3374.38,770.84 3091.07,770.84 3091.07,1195.81 3374.38,1195.81 "/>
   <path class="fil5" d="M4293.38 629.19l0 141.66 -566.63 0 0 141.66 424.97 0c25.97,0 49.73,6.35 71.27,19.03 21.54,12.69 38.66,29.81 51.35,51.35 12.69,21.54 19.03,45.3 19.03,71.27l0 141.66c0,25.97 -6.35,49.73 -19.03,71.27 -12.69,21.54 -29.81,38.66 -51.35,51.35 -21.54,12.69 -45.3,19.03 -71.27,19.03l-566.63 0 0 -141.66 566.63 0 0 -141.66 -424.97 0c-25.97,0 -49.73,-6.35 -71.27,-19.03 -21.54,-12.69 -38.66,-29.81 -51.35,-51.35 -12.69,-21.54 -19.03,-45.3 -19.03,-71.27l0 -141.66c0,-25.97 6.34,-49.73 19.03,-71.27 12.69,-21.54 29.81,-38.66 51.35,-51.35 21.54,-12.69 45.3,-19.03 71.27,-19.03l566.63 0z"/>
   <polygon class="fil5" points="5212.37,629.19 5212.37,770.84 4929.06,770.84 4929.06,1337.47 4787.4,1337.47 4787.4,770.84 4504.09,770.84 4504.09,629.19 "/>
   <path class="fil5" d="M5989.71 1337.47l-424.97 0c-25.97,0 -49.73,-6.35 -71.27,-19.03 -21.54,-12.69 -38.66,-29.81 -51.35,-51.35 -12.69,-21.54 -19.03,-45.3 -19.03,-71.27l0 -424.97c0,-25.97 6.34,-49.73 19.03,-71.27 12.69,-21.54 29.81,-38.66 51.35,-51.35 21.54,-12.69 45.3,-19.03 71.27,-19.03l424.97 0c25.97,0 49.73,6.35 71.27,19.03 21.54,12.69 38.66,29.81 51.35,51.35 12.69,21.54 19.03,45.3 19.03,71.27l0 424.97c0,25.38 -6.35,48.84 -19.03,70.38 -12.69,21.54 -29.66,38.81 -50.91,51.79 -21.25,12.99 -45.15,19.48 -71.71,19.48zm-424.97 -566.63l0 424.97 424.97 0 0 -424.97 -424.97 0z"/>
   <path class="fil0" d="M1482.47 1325.02l-566.63 0c-25.97,0 -49.73,-6.35 -71.27,-19.03 -21.54,-12.69 -38.66,-29.81 -51.35,-51.35 -12.69,-21.54 -19.03,-45.3 -19.03,-71.27l0 -424.97c0,-25.97 6.34,-49.73 19.03,-71.27 12.69,-21.54 29.81,-38.66 51.35,-51.35 21.54,-12.69 45.3,-19.03 71.27,-19.03l566.63 0 0 141.66 -566.63 0 0 424.97 566.63 0 0 141.66z"/>
   <path class="fil0" d="M2401.47 758.4l0 141.66c0,25.97 -6.35,49.73 -19.03,71.27 -12.69,21.54 -29.81,38.66 -51.35,51.35 -21.54,12.69 -45.3,19.03 -71.27,19.03l-141.66 0 141.66 141.66 141.66 0 0 141.66 -169.99 0c-20.07,0 -37.18,-7.08 -51.35,-21.25l-262.06 -262.06 -83.22 0 0 283.31 -141.66 0 0 -708.28 566.63 0c25.97,0 49.73,6.35 71.27,19.03 21.54,12.69 38.66,29.81 51.35,51.35 12.69,21.54 19.03,45.3 19.03,71.27zm-141.66 0l-424.97 0 0 141.66 424.97 0 0 -141.66z"/>
   <polygon class="fil0" points="3320.47,1325.02 2612.18,1325.02 2612.18,1183.37 2895.5,1183.37 2895.5,758.4 2612.18,758.4 2612.18,616.74 3320.47,616.74 3320.47,758.4 3037.15,758.4 3037.15,1183.37 3320.47,1183.37 "/>
   <path class="fil0" d="M4239.46 616.74l0 141.66 -566.63 0 0 141.66 424.97 0c25.97,0 49.73,6.35 71.27,19.03 21.54,12.69 38.66,29.81 51.35,51.35 12.69,21.54 19.03,45.3 19.03,71.27l0 141.66c0,25.97 -6.35,49.73 -19.03,71.27 -12.69,21.54 -29.81,38.66 -51.35,51.35 -21.54,12.69 -45.3,19.03 -71.27,19.03l-566.63 0 0 -141.66 566.63 0 0 -141.66 -424.97 0c-25.97,0 -49.73,-6.35 -71.27,-19.03 -21.54,-12.69 -38.66,-29.81 -51.35,-51.35 -12.69,-21.54 -19.03,-45.3 -19.03,-71.27l0 -141.66c0,-25.97 6.34,-49.73 19.03,-71.27 12.69,-21.54 29.81,-38.66 51.35,-51.35 21.54,-12.69 45.3,-19.03 71.27,-19.03l566.63 0z"/>
   <polygon class="fil0" points="5158.46,616.74 5158.46,758.4 4875.15,758.4 4875.15,1325.02 4733.49,1325.02 4733.49,758.4 4450.18,758.4 4450.18,616.74 "/>
   <path class="fil0" d="M5935.8 1325.02l-424.97 0c-25.97,0 -49.73,-6.35 -71.27,-19.03 -21.54,-12.69 -38.66,-29.81 -51.35,-51.35 -12.69,-21.54 -19.03,-45.3 -19.03,-71.27l0 -424.97c0,-25.97 6.34,-49.73 19.03,-71.27 12.69,-21.54 29.81,-38.66 51.35,-51.35 21.54,-12.69 45.3,-19.03 71.27,-19.03l424.97 0c25.97,0 49.73,6.35 71.27,19.03 21.54,12.69 38.66,29.81 51.35,51.35 12.69,21.54 19.03,45.3 19.03,71.27l0 424.97c0,25.38 -6.35,48.84 -19.03,70.38 -12.69,21.54 -29.66,38.81 -50.91,51.79 -21.25,12.99 -45.15,19.48 -71.71,19.48zm-424.97 -566.63l0 424.97 424.97 0 0 -424.97 -424.97 0z"/>
   <path class="fil4" d="M2807.02 1631.3l0 141.66c0,25.97 -6.35,49.73 -19.03,71.27 -12.69,21.54 -29.81,38.66 -51.35,51.35 -21.54,12.69 -45.3,19.03 -71.27,19.03l-141.66 0 141.66 141.66 141.66 0 0 141.66 -169.99 0c-20.07,0 -37.18,-7.08 -51.35,-21.25l-262.06 -262.06 -83.22 0 0 283.31 -141.66 0 0 -708.28 566.63 0c25.97,0 49.73,6.35 71.27,19.03 21.54,12.69 38.66,29.81 51.35,51.35 12.69,21.54 19.03,45.3 19.03,71.27zm-141.66 0l-424.97 0 0 141.66 424.97 0 0 -141.66z"/>
   <path class="fil4" d="M3726.02 1489.65l0 141.66 -566.63 0 0 141.66 566.63 0 0 141.66 -566.63 0 0 141.66 566.63 0 0 141.66 -566.63 0c-25.97,0 -49.73,-6.35 -71.27,-19.03 -21.54,-12.69 -38.66,-29.81 -51.35,-51.35 -12.69,-21.54 -19.03,-45.3 -19.03,-71.27l0 -424.97c0,-25.97 6.34,-49.73 19.03,-71.27 12.69,-21.54 29.81,-38.66 51.35,-51.35 21.54,-12.69 45.3,-19.03 71.27,-19.03l566.63 0z"/>
   <polygon class="fil4" points="4645.01,2197.93 3936.73,2197.93 3936.73,2056.27 4220.04,2056.27 4220.04,1631.3 3936.73,1631.3 3936.73,1489.65 4645.01,1489.65 4645.01,1631.3 4361.7,1631.3 4361.7,2056.27 4645.01,2056.27 "/>
   <path class="fil5" d="M2914.85 1656.2l0 141.66c0,25.97 -6.35,49.73 -19.03,71.27 -12.69,21.54 -29.81,38.66 -51.35,51.35 -21.54,12.69 -45.3,19.03 -71.27,19.03l-141.66 0 141.66 141.66 141.66 0 0 141.66 -169.99 0c-20.07,0 -37.18,-7.08 -51.35,-21.25l-262.06 -262.06 -83.22 0 0 283.31 -141.66 0 0 -708.28 566.63 0c25.97,0 49.73,6.35 71.27,19.03 21.54,12.69 38.66,29.81 51.35,51.35 12.69,21.54 19.03,45.3 19.03,71.27zm-141.66 0l-424.97 0 0 141.66 424.97 0 0 -141.66z"/>
   <path class="fil5" d="M3833.85 1514.54l0 141.66 -566.63 0 0 141.66 566.63 0 0 141.66 -566.63 0 0 141.66 566.63 0 0 141.66 -566.63 0c-25.97,0 -49.73,-6.35 -71.27,-19.03 -21.54,-12.69 -38.66,-29.81 -51.35,-51.35 -12.69,-21.54 -19.03,-45.3 -19.03,-71.27l0 -424.97c0,-25.97 6.34,-49.73 19.03,-71.27 12.69,-21.54 29.81,-38.66 51.35,-51.35 21.54,-12.69 45.3,-19.03 71.27,-19.03l566.63 0z"/>
   <polygon class="fil5" points="4752.85,2222.83 4044.56,2222.83 4044.56,2081.17 4327.88,2081.17 4327.88,1656.2 4044.56,1656.2 4044.56,1514.54 4752.85,1514.54 4752.85,1656.2 4469.53,1656.2 4469.53,2081.17 4752.85,2081.17 "/>
   <path class="fil0" d="M2860.94 1643.75l0 141.66c0,25.97 -6.35,49.73 -19.03,71.27 -12.69,21.54 -29.81,38.66 -51.35,51.35 -21.54,12.69 -45.3,19.03 -71.27,19.03l-141.66 0 141.66 141.66 141.66 0 0 141.66 -169.99 0c-20.07,0 -37.18,-7.08 -51.35,-21.25l-262.06 -262.06 -83.22 0 0 283.31 -141.66 0 0 -708.28 566.63 0c25.97,0 49.73,6.35 71.27,19.03 21.54,12.69 38.66,29.81 51.35,51.35 12.69,21.54 19.03,45.3 19.03,71.27zm-141.66 0l-424.97 0 0 141.66 424.97 0 0 -141.66z"/>
   <path class="fil0" d="M3779.93 1502.1l0 141.66 -566.63 0 0 141.66 566.63 0 0 141.66 -566.63 0 0 141.66 566.63 0 0 141.66 -566.63 0c-25.97,0 -49.73,-6.35 -71.27,-19.03 -21.54,-12.69 -38.66,-29.81 -51.35,-51.35 -12.69,-21.54 -19.03,-45.3 -19.03,-71.27l0 -424.97c0,-25.97 6.34,-49.73 19.03,-71.27 12.69,-21.54 29.81,-38.66 51.35,-51.35 21.54,-12.69 45.3,-19.03 71.27,-19.03l566.63 0z"/>
   <polygon class="fil0" points="4698.93,2210.38 3990.65,2210.38 3990.65,2068.72 4273.96,2068.72 4273.96,1643.75 3990.65,1643.75 3990.65,1502.1 4698.93,1502.1 4698.93,1643.75 4415.62,1643.75 4415.62,2068.72 4698.93,2068.72 "/>
   <path class="fil4" d="M454.8 4695.23l-366.78 0c-30.97,0 -53.38,-6.93 -67.24,-20.79 -13.86,-13.85 -20.79,-36.27 -20.79,-67.24l0 -1584.47c0,-30.97 6.93,-53.38 20.79,-67.24 13.85,-13.85 36.27,-20.78 67.24,-20.78l254.3 0c30.97,0 57.46,4.89 79.47,14.67 22.01,9.78 43.61,26.9 64.8,51.35l474.37 542.83 0 -520.82c0,-30.97 6.93,-53.38 20.79,-67.24 13.85,-13.85 36.27,-20.78 67.24,-20.78l366.78 0c30.97,0 53.38,6.93 67.24,20.78 13.85,13.86 20.78,36.27 20.78,67.24l0 1584.47c0,30.97 -6.93,53.38 -20.78,67.24 -13.86,13.86 -36.27,20.79 -67.24,20.79l-366.78 0c-30.97,0 -53.38,-6.93 -67.24,-20.79 -13.86,-13.85 -20.79,-36.27 -20.79,-67.24l0 -300.75 -418.12 -506.15 0 806.91c0,30.97 -6.93,53.38 -20.78,67.24 -13.86,13.86 -36.27,20.79 -67.24,20.79z"/>
   <path class="fil4" d="M3063.81 4695.23l-1134.57 0c-30.97,0 -53.38,-6.93 -67.24,-20.79 -13.86,-13.85 -20.79,-36.27 -20.79,-67.24l0 -1584.47c0,-30.97 6.93,-53.38 20.79,-67.24 13.85,-13.85 36.27,-20.78 67.24,-20.78l1134.57 0c30.97,0 53.38,6.93 67.24,20.78 13.85,13.86 20.78,36.27 20.78,67.24l0 286.08c0,30.97 -6.93,53.38 -20.78,67.24 -13.86,13.86 -36.27,20.78 -67.24,20.78l-674.87 0 0 188.28 476.81 0c30.97,0 53.38,6.93 67.24,20.78 13.85,13.86 20.78,36.27 20.78,67.24l0 261.63c0,30.97 -6.93,53.39 -20.78,67.24 -13.86,13.85 -36.27,20.78 -67.24,20.78l-476.81 0 0 210.29 674.87 0c30.97,0 53.38,6.93 67.24,20.78 13.85,13.86 20.78,36.27 20.78,67.24l0 286.08c0,30.97 -6.93,53.38 -20.78,67.24 -13.86,13.86 -36.27,20.79 -67.24,20.79z"/>
   <path class="fil4" d="M4704.52 2934.7l364.33 0c30.97,0 53.38,6.93 67.24,20.78 13.85,13.86 20.78,36.27 20.78,67.24l0 948.73c0,52.16 -2.04,100.66 -6.11,145.49 -4.08,44.83 -16.71,97.4 -37.9,157.71l-122.26 332.54c-8.15,24.45 -19.96,45.24 -35.45,62.35 -15.49,17.11 -36.27,25.68 -62.35,25.68l-325.2 0c-26.08,0 -49.72,-5.71 -70.91,-17.12 -21.19,-11.41 -35.04,-30.15 -41.57,-56.24l-112.48 -398.56c-4.89,-16.3 -11,-27.31 -18.34,-33.01 -7.34,-5.7 -15.89,-8.55 -25.67,-8.55l-22.01 0c-9.78,0 -18.34,2.85 -25.67,8.55 -7.34,5.71 -13.45,16.71 -18.34,33.01l-114.92 398.56c-6.52,24.45 -18.74,42.79 -36.67,55.02 -17.93,12.23 -39.94,18.34 -66.03,18.34l-322.76 0c-26.09,0 -48.49,-8.15 -67.24,-24.45 -18.75,-16.3 -32.19,-37.49 -40.34,-63.57l-122.26 -337.44c-21.19,-60.31 -33.82,-112.88 -37.9,-157.71 -4.08,-44.83 -6.12,-93.33 -6.12,-145.49l0 -943.84c0,-30.97 6.93,-53.38 20.79,-67.24 13.85,-13.85 36.27,-20.78 67.24,-20.78l376.56 0c30.97,0 53.39,6.93 67.24,20.78 13.85,13.86 20.78,36.27 20.78,67.24l0 899.83 141.82 -308.09c13.04,-27.71 30.15,-47.28 51.35,-58.69 21.19,-11.41 47.28,-17.12 78.24,-17.12l102.7 0c30.97,0 57.05,5.7 78.25,17.12 21.19,11.41 38.3,30.97 51.35,58.69l141.82 308.09 0 -899.83c0,-30.97 6.93,-53.38 20.79,-67.24 13.85,-13.85 36.27,-20.78 67.24,-20.78z"/>
   <path class="fil4" d="M6288.99 4695.23l-772.67 0c-30.97,0 -53.38,-6.93 -67.24,-20.79 -13.86,-13.85 -20.79,-36.27 -20.79,-67.24l0 -286.08c0,-30.97 6.93,-53.38 20.79,-67.24 13.85,-13.85 36.27,-20.78 67.24,-20.78l657.75 0c21.19,0 37.09,-6.93 47.68,-20.78 10.59,-13.86 15.89,-30.56 15.89,-50.13 0,-27.71 -5.3,-48.09 -15.89,-61.13 -10.59,-13.04 -26.49,-20.38 -47.68,-22.01l-366.78 -51.35c-114.11,-16.3 -205.8,-53.79 -275.08,-112.48 -69.28,-58.68 -103.92,-156.49 -103.92,-293.42l0 -256.74c0,-138.56 44.83,-244.93 134.49,-319.1 89.66,-74.17 213.54,-111.26 371.66,-111.26l684.65 0c30.97,0 53.39,6.93 67.24,20.78 13.85,13.86 20.78,36.27 20.78,67.24l0 290.98c0,30.97 -6.93,53.38 -20.78,67.24 -13.85,13.86 -36.27,20.78 -67.24,20.78l-569.72 0c-21.19,0 -37.49,6.93 -48.9,20.78 -11.41,13.85 -17.11,31.38 -17.11,52.57 0,21.19 5.7,39.12 17.11,53.79 11.41,14.67 27.71,22.82 48.9,24.45l364.33 48.9c114.11,16.3 206.21,53.79 276.31,112.48 70.09,58.68 105.14,156.49 105.14,293.42l0 256.74c0,138.57 -45.23,244.93 -135.7,319.1 -90.47,74.17 -213.95,111.26 -370.45,111.26z"/>
   <path class="fil5" d="M582.22 4576.42l-366.78 0c-30.97,0 -53.38,-6.93 -67.24,-20.79 -13.86,-13.85 -20.79,-36.27 -20.79,-67.24l0 -1584.47c0,-30.97 6.93,-53.38 20.79,-67.24 13.85,-13.85 36.27,-20.78 67.24,-20.78l254.3 0c30.97,0 57.46,4.89 79.47,14.67 22.01,9.78 43.61,26.9 64.8,51.35l474.37 542.83 0 -520.82c0,-30.97 6.93,-53.38 20.79,-67.24 13.85,-13.85 36.27,-20.78 67.24,-20.78l366.78 0c30.97,0 53.38,6.93 67.24,20.78 13.85,13.86 20.78,36.27 20.78,67.24l0 1584.47c0,30.97 -6.93,53.38 -20.78,67.24 -13.86,13.86 -36.27,20.79 -67.24,20.79l-366.78 0c-30.97,0 -53.38,-6.93 -67.24,-20.79 -13.86,-13.85 -20.79,-36.27 -20.79,-67.24l0 -300.75 -418.12 -506.15 0 806.91c0,30.97 -6.93,53.38 -20.78,67.24 -13.86,13.86 -36.27,20.79 -67.24,20.79z"/>
   <path class="fil5" d="M3191.23 4576.42l-1134.57 0c-30.97,0 -53.38,-6.93 -67.24,-20.79 -13.86,-13.85 -20.79,-36.27 -20.79,-67.24l0 -1584.47c0,-30.97 6.93,-53.38 20.79,-67.24 13.85,-13.85 36.27,-20.78 67.24,-20.78l1134.57 0c30.97,0 53.38,6.93 67.24,20.78 13.85,13.86 20.78,36.27 20.78,67.24l0 286.08c0,30.97 -6.93,53.38 -20.78,67.24 -13.86,13.86 -36.27,20.78 -67.24,20.78l-674.87 0 0 188.28 476.81 0c30.97,0 53.38,6.93 67.24,20.78 13.85,13.86 20.78,36.27 20.78,67.24l0 261.63c0,30.97 -6.93,53.39 -20.78,67.24 -13.86,13.85 -36.27,20.78 -67.24,20.78l-476.81 0 0 210.29 674.87 0c30.97,0 53.38,6.93 67.24,20.78 13.85,13.86 20.78,36.27 20.78,67.24l0 286.08c0,30.97 -6.93,53.38 -20.78,67.24 -13.86,13.86 -36.27,20.79 -67.24,20.79z"/>
   <path class="fil5" d="M4831.94 2815.89l364.33 0c30.97,0 53.38,6.93 67.24,20.78 13.85,13.86 20.78,36.27 20.78,67.24l0 948.73c0,52.16 -2.04,100.66 -6.11,145.49 -4.08,44.83 -16.71,97.4 -37.9,157.71l-122.26 332.54c-8.15,24.45 -19.96,45.24 -35.45,62.35 -15.49,17.11 -36.27,25.68 -62.35,25.68l-325.2 0c-26.08,0 -49.72,-5.71 -70.91,-17.12 -21.19,-11.41 -35.04,-30.15 -41.57,-56.24l-112.48 -398.56c-4.89,-16.3 -11,-27.31 -18.34,-33.01 -7.34,-5.7 -15.89,-8.55 -25.67,-8.55l-22.01 0c-9.78,0 -18.34,2.85 -25.67,8.55 -7.34,5.71 -13.45,16.71 -18.34,33.01l-114.92 398.56c-6.52,24.45 -18.74,42.79 -36.67,55.02 -17.93,12.23 -39.94,18.34 -66.03,18.34l-322.76 0c-26.09,0 -48.49,-8.15 -67.24,-24.45 -18.75,-16.3 -32.19,-37.49 -40.34,-63.57l-122.26 -337.44c-21.19,-60.31 -33.82,-112.88 -37.9,-157.71 -4.08,-44.83 -6.12,-93.33 -6.12,-145.49l0 -943.84c0,-30.97 6.93,-53.38 20.79,-67.24 13.85,-13.85 36.27,-20.78 67.24,-20.78l376.56 0c30.97,0 53.39,6.93 67.24,20.78 13.85,13.86 20.78,36.27 20.78,67.24l0 899.83 141.82 -308.09c13.04,-27.71 30.15,-47.28 51.35,-58.69 21.19,-11.41 47.28,-17.12 78.24,-17.12l102.7 0c30.97,0 57.05,5.7 78.25,17.12 21.19,11.41 38.3,30.97 51.35,58.69l141.82 308.09 0 -899.83c0,-30.97 6.93,-53.38 20.79,-67.24 13.85,-13.85 36.27,-20.78 67.24,-20.78z"/>
   <path class="fil5" d="M6416.41 4576.42l-772.67 0c-30.97,0 -53.38,-6.93 -67.24,-20.79 -13.86,-13.85 -20.79,-36.27 -20.79,-67.24l0 -286.08c0,-30.97 6.93,-53.38 20.79,-67.24 13.85,-13.85 36.27,-20.78 67.24,-20.78l657.75 0c21.19,0 37.09,-6.93 47.68,-20.78 10.59,-13.86 15.89,-30.56 15.89,-50.13 0,-27.71 -5.3,-48.09 -15.89,-61.13 -10.59,-13.04 -26.49,-20.38 -47.68,-22.01l-366.78 -51.35c-114.11,-16.3 -205.8,-53.79 -275.08,-112.48 -69.28,-58.68 -103.92,-156.49 -103.92,-293.42l0 -256.74c0,-138.56 44.83,-244.93 134.49,-319.1 89.66,-74.17 213.54,-111.26 371.66,-111.26l684.65 0c30.97,0 53.39,6.93 67.24,20.78 13.85,13.86 20.78,36.27 20.78,67.24l0 290.98c0,30.97 -6.93,53.38 -20.78,67.24 -13.85,13.86 -36.27,20.78 -67.24,20.78l-569.72 0c-21.19,0 -37.49,6.93 -48.9,20.78 -11.41,13.85 -17.11,31.38 -17.11,52.57 0,21.19 5.7,39.12 17.11,53.79 11.41,14.67 27.71,22.82 48.9,24.45l364.33 48.9c114.11,16.3 206.21,53.79 276.31,112.48 70.09,58.68 105.14,156.49 105.14,293.42l0 256.74c0,138.57 -45.23,244.93 -135.7,319.1 -90.47,74.17 -213.95,111.26 -370.45,111.26z"/>
   <path class="fil2" d="M518.51 4635.83l-366.78 0c-30.97,0 -53.38,-6.93 -67.24,-20.79 -13.86,-13.85 -20.79,-36.27 -20.79,-67.24l0 -1584.47c0,-30.97 6.93,-53.38 20.79,-67.24 13.85,-13.85 36.27,-20.78 67.24,-20.78l254.3 0c30.97,0 57.46,4.89 79.47,14.67 22.01,9.78 43.61,26.9 64.8,51.35l474.37 542.83 0 -520.82c0,-30.97 6.93,-53.38 20.79,-67.24 13.85,-13.85 36.27,-20.78 67.24,-20.78l366.78 0c30.97,0 53.38,6.93 67.24,20.78 13.85,13.86 20.78,36.27 20.78,67.24l0 1584.47c0,30.97 -6.93,53.38 -20.78,67.24 -13.86,13.86 -36.27,20.79 -67.24,20.79l-366.78 0c-30.97,0 -53.38,-6.93 -67.24,-20.79 -13.86,-13.85 -20.79,-36.27 -20.79,-67.24l0 -300.75 -418.12 -506.15 0 806.91c0,30.97 -6.93,53.38 -20.78,67.24 -13.86,13.86 -36.27,20.79 -67.24,20.79z"/>
   <path class="fil2" d="M3127.52 4635.83l-1134.57 0c-30.97,0 -53.38,-6.93 -67.24,-20.79 -13.86,-13.85 -20.79,-36.27 -20.79,-67.24l0 -1584.47c0,-30.97 6.93,-53.38 20.79,-67.24 13.85,-13.85 36.27,-20.78 67.24,-20.78l1134.57 0c30.97,0 53.38,6.93 67.24,20.78 13.85,13.86 20.78,36.27 20.78,67.24l0 286.08c0,30.97 -6.93,53.38 -20.78,67.24 -13.86,13.86 -36.27,20.78 -67.24,20.78l-674.87 0 0 188.28 476.81 0c30.97,0 53.38,6.93 67.24,20.78 13.85,13.86 20.78,36.27 20.78,67.24l0 261.63c0,30.97 -6.93,53.39 -20.78,67.24 -13.86,13.85 -36.27,20.78 -67.24,20.78l-476.81 0 0 210.29 674.87 0c30.97,0 53.38,6.93 67.24,20.78 13.85,13.86 20.78,36.27 20.78,67.24l0 286.08c0,30.97 -6.93,53.38 -20.78,67.24 -13.86,13.86 -36.27,20.79 -67.24,20.79z"/>
   <path class="fil2" d="M4768.23 2875.3l364.33 0c30.97,0 53.38,6.93 67.24,20.78 13.85,13.86 20.78,36.27 20.78,67.24l0 948.73c0,52.16 -2.04,100.66 -6.11,145.49 -4.08,44.83 -16.71,97.4 -37.9,157.71l-122.26 332.54c-8.15,24.45 -19.96,45.24 -35.45,62.35 -15.49,17.11 -36.27,25.68 -62.35,25.68l-325.2 0c-26.08,0 -49.72,-5.71 -70.91,-17.12 -21.19,-11.41 -35.04,-30.15 -41.57,-56.24l-112.48 -398.56c-4.89,-16.3 -11,-27.31 -18.34,-33.01 -7.34,-5.7 -15.89,-8.55 -25.67,-8.55l-22.01 0c-9.78,0 -18.34,2.85 -25.67,8.55 -7.34,5.71 -13.45,16.71 -18.34,33.01l-114.92 398.56c-6.52,24.45 -18.74,42.79 -36.67,55.02 -17.93,12.23 -39.94,18.34 -66.03,18.34l-322.76 0c-26.09,0 -48.49,-8.15 -67.24,-24.45 -18.75,-16.3 -32.19,-37.49 -40.34,-63.57l-122.26 -337.44c-21.19,-60.31 -33.82,-112.88 -37.9,-157.71 -4.08,-44.83 -6.12,-93.33 -6.12,-145.49l0 -943.84c0,-30.97 6.93,-53.38 20.79,-67.24 13.85,-13.85 36.27,-20.78 67.24,-20.78l376.56 0c30.97,0 53.39,6.93 67.24,20.78 13.85,13.86 20.78,36.27 20.78,67.24l0 899.83 141.82 -308.09c13.04,-27.71 30.15,-47.28 51.35,-58.69 21.19,-11.41 47.28,-17.12 78.24,-17.12l102.7 0c30.97,0 57.05,5.7 78.25,17.12 21.19,11.41 38.3,30.97 51.35,58.69l141.82 308.09 0 -899.83c0,-30.97 6.93,-53.38 20.79,-67.24 13.85,-13.85 36.27,-20.78 67.24,-20.78z"/>
   <path class="fil2" d="M6352.7 4635.83l-772.67 0c-30.97,0 -53.38,-6.93 -67.24,-20.79 -13.86,-13.85 -20.79,-36.27 -20.79,-67.24l0 -286.08c0,-30.97 6.93,-53.38 20.79,-67.24 13.85,-13.85 36.27,-20.78 67.24,-20.78l657.75 0c21.19,0 37.09,-6.93 47.68,-20.78 10.59,-13.86 15.89,-30.56 15.89,-50.13 0,-27.71 -5.3,-48.09 -15.89,-61.13 -10.59,-13.04 -26.49,-20.38 -47.68,-22.01l-366.78 -51.35c-114.11,-16.3 -205.8,-53.79 -275.08,-112.48 -69.28,-58.68 -103.92,-156.49 -103.92,-293.42l0 -256.74c0,-138.56 44.83,-244.93 134.49,-319.1 89.66,-74.17 213.54,-111.26 371.66,-111.26l684.65 0c30.97,0 53.39,6.93 67.24,20.78 13.85,13.86 20.78,36.27 20.78,67.24l0 290.98c0,30.97 -6.93,53.38 -20.78,67.24 -13.85,13.86 -36.27,20.78 -67.24,20.78l-569.72 0c-21.19,0 -37.49,6.93 -48.9,20.78 -11.41,13.85 -17.11,31.38 -17.11,52.57 0,21.19 5.7,39.12 17.11,53.79 11.41,14.67 27.71,22.82 48.9,24.45l364.33 48.9c114.11,16.3 206.21,53.79 276.31,112.48 70.09,58.68 105.14,156.49 105.14,293.42l0 256.74c0,138.57 -45.23,244.93 -135.7,319.1 -90.47,74.17 -213.95,111.26 -370.45,111.26z"/>
   <path class="fil6" d="M4363.82 5754.87c44.02,-33.44 82.19,-73.45 114.5,-120.04 32.31,-46.59 54.31,-103.2 66.01,-169.83 4.73,-25.47 14.1,-45.21 28.12,-59.2 14.02,-14 29.24,-22.48 45.68,-25.46 18.9,-3.43 36.18,-0.61 51.82,8.44 15.64,9.05 25.4,24.26 29.27,45.63 1.79,9.86 1.85,19.61 0.2,29.25 -9.61,68.79 -26.31,128.9 -50.11,180.32 -23.8,51.42 -52.59,96.31 -86.38,134.69 -33.79,38.37 -70.4,71.74 -109.83,100.1 -39.43,28.36 -80.07,53.55 -121.91,75.55l-28.36 166.83c-12.53,76.11 -42.04,135.78 -88.54,179 -46.49,43.22 -100.15,70.34 -160.97,81.35 -40.27,7.29 -79.56,5.92 -117.88,-4.12 -38.31,-10.04 -71.08,-28.08 -98.29,-54.14 -27.21,-26.05 -44.39,-58.8 -51.53,-98.25 -3.42,-18.9 -4.04,-38.74 -1.86,-59.51 4.88,-43.32 21.53,-80.29 49.94,-110.9 28.41,-30.61 62.1,-56.66 101.08,-78.14 38.97,-21.49 76.69,-39.35 113.16,-53.59 -43.55,-1.45 -82.98,-15.32 -118.3,-41.6 -35.31,-26.28 -57.36,-63.67 -66.14,-112.16 -4.47,-24.65 -4.64,-51.36 -0.5,-80.12l50.76 -317.31c10.13,-61.25 34.35,-109.13 72.66,-143.66 38.31,-34.52 80.07,-55.88 125.27,-64.06 32.87,-5.95 62.5,-6.44 88.86,-1.45 26.37,4.99 51.83,16.72 76.4,35.18 3.53,-22.7 13.03,-40.55 28.5,-53.54 15.47,-12.99 32.25,-21.12 50.33,-24.39 9.04,-1.64 17.48,-1.89 25.32,-0.76 6.05,0.6 13.6,2.42 22.63,5.45 9.04,3.03 17.91,8.64 26.6,16.83 8.7,8.19 14.76,21.73 18.18,40.63 3.13,17.26 2.81,38.96 -0.95,65.11l-83.74 507.89zm-121.99 -371.33c0.22,-3.44 0.08,-6.59 -0.44,-9.47 -0.52,-2.88 -1.01,-5.55 -1.45,-8.01 -4.02,-22.19 -14.41,-38.56 -31.17,-49.1 -16.76,-10.55 -34.6,-14.11 -53.5,-10.69 -13.15,2.38 -25.31,9.04 -36.49,19.97 -11.17,10.94 -18.49,25.63 -21.94,44.08l-54.25 333.21c-0.07,4.26 -0.32,8.76 -0.74,13.5 -0.41,4.75 -0.33,8.77 0.27,12.05 2.38,13.15 9.18,22.53 20.38,28.14 11.2,5.61 24.2,7.08 38.99,4.4 21.37,-3.87 40.3,-15.36 56.79,-34.47 16.49,-19.11 28.81,-41.29 36.97,-66.54l46.59 -277.08zm-125.98 668.33c-38.33,17.97 -70.28,36.07 -95.85,54.28 -25.56,18.21 -40.93,38.81 -46.1,61.82 -2.33,10.6 -2.82,19.6 -1.48,27 1.94,10.69 7.1,19.29 15.5,25.84 8.4,6.54 19.58,8.55 33.55,6.02 18.9,-3.43 35.94,-12.45 51.12,-27.08 15.18,-14.63 24.79,-34.2 28.84,-58.7l14.4 -89.19z"/>
   <path class="fil6" d="M5211.01 5343c3,-20.92 11.08,-37.24 24.24,-48.95 13.16,-11.71 27.54,-18.99 43.16,-21.82 18.9,-3.43 37.17,-1 54.79,7.26 17.62,8.27 28.23,22.26 31.8,41.99 1.34,7.39 1.45,15.01 0.32,22.86 -13.29,90.68 -34.52,163.28 -63.7,217.79 -29.17,54.51 -62.56,95.15 -100.15,121.9 -37.59,26.76 -76.12,43.7 -115.57,50.85 -36.98,6.7 -72.47,5.27 -106.45,-4.28 -33.98,-9.55 -62.4,-25.84 -85.24,-48.86 -18.55,28.82 -40.55,53.81 -66,74.97 -25.45,21.16 -56.67,35.09 -93.66,41.79 -34.52,6.25 -67.01,4.92 -97.48,-4 -30.47,-8.91 -56.24,-24.62 -77.29,-47.12 -21.05,-22.49 -34.55,-50.18 -40.5,-83.06 -3.87,-21.37 -4.12,-43.81 -0.74,-67.34l68.12 -446.5c4.58,-26.29 14.08,-46.48 28.51,-60.55 14.43,-14.07 30.27,-22.67 47.53,-25.79 23.01,-4.17 45.17,-0.12 66.49,12.15 21.32,12.27 34.28,31.14 38.9,56.62 2.09,11.51 1.93,24.69 -0.47,39.56l-64.72 408.96c-1.58,14.71 -1.33,27.82 0.75,39.33 3.72,20.55 15.03,29.11 33.93,25.69 24.66,-4.47 47.04,-21.47 67.16,-50.99 20.12,-29.53 35.75,-62.71 46.91,-99.53l67.08 -403.02c4.28,-27.94 13.84,-48.98 28.68,-63.12 14.84,-14.14 31.3,-22.85 49.38,-26.13 22.19,-4.02 43.7,-0.06 64.54,11.87 20.83,11.93 33.48,30.22 37.95,54.88 1.04,5.75 1.64,11.38 1.79,16.87 0.15,5.49 -0.42,11.75 -1.7,18.77l-72.14 438.32c-1.42,6.2 -1.54,12.59 -0.35,19.16 1.49,8.22 6.24,14.57 14.27,19.06 8.03,4.49 17.38,5.77 28.06,3.83 28.77,-5.21 55.95,-27.32 81.57,-66.33 25.61,-39.01 45.7,-98.04 60.24,-177.06z"/>
   <path class="fil6" d="M5931.32 5151.46c18.08,-3.28 34.87,-0.8 50.36,7.43 15.49,8.23 25.18,23.03 29.05,44.39 1.94,10.69 1.51,24.76 -1.27,42.24 -2.77,17.48 -6.53,38.96 -11.25,64.43 -14.24,71.33 -36.38,128.39 -66.41,171.17 -30.02,42.79 -63.25,74.9 -99.69,96.35 -36.43,21.45 -71.91,35.3 -106.43,41.55 -12.33,2.23 -29.27,3.6 -50.81,4.11 -21.56,0.51 -43.66,-2.07 -66.33,-7.73 -22.67,-5.66 -42.29,-16.74 -58.86,-33.27 -19.3,24.72 -42.04,45.6 -68.24,62.65 -26.19,17.05 -53.68,28.18 -82.44,33.39 -36.16,6.55 -70.15,4 -101.96,-7.64 -31.82,-11.64 -58.72,-30.11 -80.7,-55.41 -21.98,-25.3 -36.02,-54.8 -42.12,-88.5 -2.09,-11.51 -2.9,-23.03 -2.44,-34.57 0.45,-11.54 1.36,-22.95 2.71,-34.23l55.83 -352.6c7.81,-50.65 29.39,-90.84 64.75,-120.58 35.35,-29.75 73.17,-48.26 113.44,-55.55 31.23,-5.66 59.23,-6.91 83.99,-3.75 24.76,3.16 44.46,7.65 59.1,13.49 7.04,-17.4 18.07,-31.5 33.09,-42.28 15.03,-10.78 31.17,-17.74 48.42,-20.86 23.01,-4.17 45.03,-0.93 66.05,9.68 21.02,10.62 33.99,29.5 38.9,56.62 2.23,12.33 2.22,26.33 -0.03,42.02l-65.74 424.42c-1.43,15.54 -1.33,27.83 0.31,36.87 3.72,20.54 16.68,28.81 38.86,24.79 18.9,-3.42 38.09,-13.47 57.56,-30.16 19.48,-16.68 37.21,-41.75 53.23,-75.21 16.01,-33.45 27.28,-76.66 33.82,-129.62 3.08,-25.17 12.07,-44.63 26.99,-58.36 14.91,-13.74 31,-22.16 48.26,-25.29zm-409.05 61.34c4.21,-33.02 4.75,-58.15 1.62,-75.42 -3.87,-21.36 -12.15,-36.63 -24.84,-45.79 -12.69,-9.16 -24.79,-12.7 -36.3,-10.62 -9.86,1.79 -21.54,8.78 -35.03,20.99 -13.49,12.21 -22.57,38.25 -27.23,78.14l-34.03 262.08c-0.6,6.05 -1.09,12.72 -1.47,20 -0.37,7.29 0.18,15.03 1.67,23.25 5.51,30.41 21.82,43.16 48.94,38.25 13.15,-2.38 28.43,-11.73 45.85,-28.04 17.42,-16.31 29.06,-45.79 34.91,-88.44l25.92 -194.4z"/>
   <path class="fil6" d="M6441.29 5120.23c2.33,-19.94 9.78,-35.08 22.34,-45.42 12.55,-10.33 26.64,-16.92 42.25,-19.75 19.73,-3.57 39.02,-1.33 57.87,6.71 18.86,8.05 30,21.52 33.42,40.42 1.04,5.75 1,12.55 -0.13,20.39 -17.26,110.93 -49.7,200.19 -97.29,267.8 -47.6,67.61 -105.09,107.52 -172.49,119.72 -33.7,6.1 -66.27,4.36 -97.71,-5.22 -31.45,-9.59 -58.01,-26.21 -79.69,-49.87 -21.69,-23.66 -35.73,-53.16 -42.13,-88.5 -4.46,-24.65 -4.3,-51.85 0.51,-81.58l27.01 -160.23c0.82,-9.48 0.72,-17.11 -0.32,-22.86 -2.53,-13.97 -8.78,-23.87 -18.75,-29.71 -9.97,-5.83 -21.53,-9.9 -34.67,-12.18 -13.15,-2.29 -25.77,-4.03 -37.87,-5.24l-35.55 197.42c-3.83,21.06 -12.86,37.97 -27.1,50.74 -14.24,12.77 -29.99,20.71 -47.25,23.83 -17.26,3.13 -33.6,0.78 -49.02,-7.04 -15.42,-7.82 -24.99,-22 -28.71,-42.55 -1.49,-8.22 -1.89,-17.48 -1.21,-27.79l46.02 -259.15c-25.16,-21.76 -40.72,-49.07 -46.67,-81.95 -6.4,-35.34 -1.79,-68.43 13.85,-99.28 15.63,-30.84 41.53,-49.53 77.69,-56.08 27.95,-5.06 54.46,0.75 79.55,17.43 25.08,16.67 40.24,39.4 45.44,68.16 2.09,11.5 2.3,22.08 0.65,31.71 18.15,1.81 40.2,5.24 66.16,10.3 25.96,5.06 52.19,12.83 78.71,23.31 26.51,10.48 49.47,24.78 68.88,42.92 19.41,18.13 31.79,41.99 37.15,71.57 1.94,10.69 2.88,21.76 2.84,33.23 -0.05,11.46 -1.01,23.74 -2.89,36.8l-36.13 215.35c-1.65,9.63 -1.66,18.97 -0.02,28.01 1.49,8.22 5.13,15.41 10.91,21.58 5.79,6.16 12.79,8.51 21.01,7.02 26.3,-4.77 50.39,-29.92 72.27,-75.48 21.88,-45.55 38.9,-100.41 51.05,-164.57z"/>
   <path class="fil6" d="M7161.6 4928.69c18.08,-3.28 34.87,-0.8 50.36,7.43 15.49,8.23 25.18,23.03 29.05,44.4 1.94,10.68 1.51,24.76 -1.26,42.24 -2.78,17.48 -6.53,38.95 -11.25,64.43 -14.24,71.33 -36.38,128.39 -66.41,171.18 -30.02,42.79 -63.25,74.9 -99.69,96.35 -36.43,21.45 -71.91,35.3 -106.43,41.55 -12.33,2.23 -29.27,3.6 -50.82,4.11 -21.56,0.51 -43.66,-2.07 -66.33,-7.73 -22.67,-5.66 -42.29,-16.74 -58.86,-33.27 -19.29,24.71 -42.04,45.6 -68.23,62.65 -26.2,17.05 -53.68,28.18 -82.45,33.39 -36.16,6.55 -70.14,4 -101.96,-7.64 -31.82,-11.64 -58.71,-30.11 -80.7,-55.41 -21.98,-25.3 -36.03,-54.8 -42.13,-88.5 -2.08,-11.51 -2.9,-23.03 -2.44,-34.57 0.46,-11.54 1.36,-22.95 2.71,-34.23l55.84 -352.6c7.8,-50.65 29.39,-90.84 64.74,-120.58 35.36,-29.75 73.17,-48.26 113.44,-55.56 31.23,-5.66 59.23,-6.9 84,-3.75 24.76,3.16 44.46,7.65 59.09,13.49 7.04,-17.4 18.07,-31.5 33.09,-42.28 15.03,-10.78 31.17,-17.74 48.43,-20.86 23.01,-4.17 45.02,-0.94 66.05,9.68 21.02,10.62 33.98,29.5 38.9,56.62 2.23,12.33 2.22,26.33 -0.03,42.02l-65.74 424.42c-1.43,15.54 -1.33,27.83 0.31,36.87 3.72,20.55 16.68,28.81 38.86,24.79 18.9,-3.42 38.09,-13.47 57.57,-30.16 19.47,-16.68 37.21,-41.75 53.22,-75.21 16.01,-33.45 27.28,-76.66 33.82,-129.62 3.08,-25.17 12.08,-44.63 26.99,-58.36 14.91,-13.74 31,-22.16 48.26,-25.29zm-409.05 61.34c4.21,-33.02 4.75,-58.15 1.62,-75.42 -3.87,-21.37 -12.15,-36.63 -24.84,-45.79 -12.69,-9.16 -24.79,-12.7 -36.3,-10.61 -9.87,1.79 -21.54,8.78 -35.03,20.99 -13.49,12.2 -22.57,38.25 -27.23,78.14l-34.03 262.08c-0.6,6.05 -1.09,12.72 -1.47,20 -0.38,7.28 0.18,15.03 1.66,23.25 5.51,30.41 21.82,43.16 48.94,38.25 13.15,-2.38 28.43,-11.73 45.85,-28.04 17.42,-16.31 29.06,-45.79 34.91,-88.45l25.92 -194.4z"/>
   <path class="fil6" d="M7718.87 4891.44c3.08,-25.17 11.87,-44.59 26.37,-58.25 14.51,-13.66 29.98,-21.98 46.41,-24.95 18.9,-3.42 36.59,-0.68 53.05,8.22 16.46,8.9 26.55,23.63 30.28,44.17 1.34,7.39 1.07,17.63 -0.8,30.7 -19.14,123.99 -67.24,219.29 -144.31,285.86 -77.07,66.58 -175.59,110.73 -295.59,132.46 -103.55,18.75 -177.8,16.5 -222.76,-6.77l-45.72 310.03c-3.23,24.35 -12.96,43.3 -29.18,56.85 -16.22,13.54 -34.61,22.18 -55.15,25.9 -22.2,4.02 -43.28,1.26 -63.25,-8.29 -19.98,-9.53 -32.27,-27.05 -36.89,-52.53 -2.38,-13.15 -2.03,-27.64 1.04,-43.48l149.82 -923.46c4.28,-27.94 14.42,-49.3 30.41,-64.07 16,-14.78 34.27,-24.03 54.82,-27.75 22.19,-4.02 42.85,-2.45 61.96,4.69 19.12,7.15 29.2,18.27 30.23,33.36 11.89,-14.04 26.53,-24.54 43.95,-31.51 17.41,-6.97 34.34,-11.95 50.77,-14.92 32.05,-5.81 63.16,-2.74 93.34,9.2 30.17,11.94 56.01,30.39 77.5,55.35 21.5,24.97 35.3,54.3 41.4,88 3.87,21.37 4.04,43.41 0.51,66.12 -8.63,50.79 -17.27,102.65 -25.94,155.57 -8.67,52.92 -17.39,104.37 -26.17,154.34l-6.41 27.89c39.91,-23.35 73.94,-54.56 102.09,-93.6 28.15,-39.05 47.56,-85.43 58.2,-139.13zm-474.83 218.39c-1.65,9.64 -1.58,19.38 0.2,29.24 3.13,17.26 11.02,29.2 23.67,35.83 12.66,6.61 26.79,8.51 42.41,5.69 16.29,-3.8 31.07,-12.42 44.34,-25.86 13.27,-13.44 21.56,-29.79 24.85,-49.06 7.66,-51.46 15.71,-101.94 24.15,-151.43 8.43,-49.48 16.07,-99.89 22.91,-151.2 1.58,-14.72 1.55,-26.59 -0.08,-35.64 -2.83,-15.62 -10.86,-27.11 -24.07,-34.48 -13.22,-7.37 -27.22,-9.71 -42.02,-7.03 -17.26,3.13 -32.32,11.37 -45.18,24.73 -12.86,13.36 -20.98,31.81 -24.36,55.34l-46.83 303.86z"/>
   <path class="fil6" d="M8384.11 4768.44c3,-20.91 11.08,-37.23 24.24,-48.95 13.16,-11.72 27.55,-18.99 43.16,-21.82 18.9,-3.42 37.17,-1 54.79,7.27 17.62,8.27 28.23,22.26 31.8,41.99 1.34,7.4 1.45,15.02 0.32,22.86 -13.29,90.68 -34.52,163.28 -63.7,217.79 -29.17,54.51 -62.56,95.15 -100.15,121.9 -37.59,26.76 -76.12,43.71 -115.57,50.85 -36.98,6.7 -72.47,5.27 -106.45,-4.28 -33.98,-9.55 -62.4,-25.84 -85.24,-48.86 -18.55,28.82 -40.55,53.81 -66,74.97 -25.45,21.16 -56.67,35.09 -93.66,41.78 -34.52,6.25 -67.01,4.92 -97.48,-3.99 -30.47,-8.91 -56.23,-24.62 -77.29,-47.12 -21.05,-22.5 -34.55,-50.19 -40.5,-83.06 -3.87,-21.37 -4.12,-43.81 -0.73,-67.34l68.11 -446.5c4.58,-26.29 14.08,-46.48 28.51,-60.55 14.43,-14.07 30.28,-22.67 47.53,-25.79 23.01,-4.17 45.17,-0.11 66.5,12.15 21.32,12.27 34.28,31.14 38.9,56.61 2.08,11.51 1.93,24.69 -0.48,39.56l-64.72 408.96c-1.58,14.72 -1.33,27.82 0.75,39.33 3.72,20.54 15.03,29.11 33.94,25.68 24.65,-4.47 47.04,-21.46 67.16,-50.99 20.12,-29.53 35.75,-62.71 46.91,-99.53l67.08 -403.02c4.28,-27.94 13.84,-48.98 28.68,-63.12 14.84,-14.14 31.3,-22.86 49.38,-26.13 22.19,-4.02 43.7,-0.06 64.54,11.87 20.83,11.93 33.48,30.22 37.94,54.88 1.04,5.75 1.64,11.37 1.79,16.87 0.15,5.49 -0.42,11.75 -1.7,18.77l-72.14 438.31c-1.42,6.2 -1.54,12.59 -0.35,19.16 1.49,8.22 6.24,14.57 14.27,19.06 8.03,4.49 17.39,5.77 28.07,3.83 28.77,-5.21 55.95,-27.32 81.57,-66.34 25.61,-39.01 45.7,-98.03 60.25,-177.06z"/>
   <path class="fil6" d="M9104.41 4576.9c18.08,-3.28 34.87,-0.8 50.36,7.43 15.49,8.23 25.18,23.03 29.05,44.39 1.94,10.69 1.51,24.77 -1.26,42.25 -2.78,17.48 -6.53,38.95 -11.25,64.43 -14.24,71.33 -36.38,128.39 -66.41,171.18 -30.02,42.79 -63.25,74.9 -99.69,96.35 -36.43,21.45 -71.91,35.3 -106.43,41.56 -12.33,2.23 -29.27,3.6 -50.82,4.11 -21.56,0.5 -43.66,-2.07 -66.33,-7.73 -22.67,-5.66 -42.29,-16.74 -58.86,-33.27 -19.29,24.71 -42.04,45.6 -68.23,62.64 -26.2,17.06 -53.68,28.18 -82.45,33.39 -36.16,6.55 -70.15,4 -101.96,-7.64 -31.82,-11.64 -58.71,-30.11 -80.7,-55.41 -21.98,-25.3 -36.03,-54.8 -42.13,-88.5 -2.09,-11.51 -2.9,-23.03 -2.44,-34.57 0.46,-11.54 1.36,-22.95 2.71,-34.23l55.84 -352.6c7.8,-50.65 29.39,-90.84 64.74,-120.58 35.36,-29.75 73.17,-48.26 113.44,-55.56 31.23,-5.66 59.23,-6.9 84,-3.75 24.76,3.16 44.46,7.65 59.09,13.49 7.04,-17.4 18.07,-31.49 33.09,-42.28 15.03,-10.78 31.17,-17.74 48.43,-20.87 23.01,-4.17 45.02,-0.93 66.05,9.69 21.02,10.62 33.98,29.49 38.9,56.62 2.23,12.33 2.22,26.33 -0.03,42.01l-65.74 424.42c-1.43,15.54 -1.33,27.83 0.31,36.87 3.72,20.54 16.68,28.81 38.86,24.79 18.9,-3.43 38.09,-13.48 57.57,-30.16 19.47,-16.68 37.21,-41.75 53.22,-75.21 16.01,-33.46 27.28,-76.66 33.82,-129.62 3.08,-25.17 12.08,-44.63 26.99,-58.36 14.91,-13.74 31,-22.16 48.26,-25.29zm-409.05 61.34c4.21,-33.02 4.75,-58.15 1.62,-75.41 -3.87,-21.37 -12.15,-36.63 -24.84,-45.79 -12.69,-9.16 -24.79,-12.7 -36.3,-10.61 -9.87,1.79 -21.54,8.78 -35.03,20.99 -13.49,12.2 -22.57,38.25 -27.23,78.14l-34.03 262.08c-0.6,6.05 -1.09,12.72 -1.47,20 -0.37,7.28 0.18,15.03 1.67,23.25 5.51,30.41 21.82,43.16 48.94,38.25 13.15,-2.38 28.43,-11.73 45.85,-28.04 17.42,-16.31 29.06,-45.79 34.91,-88.44l25.92 -194.4z"/>
   <path class="fil6" d="M9670.76 4526.55c3.3,-19.27 11.19,-34.28 23.68,-45.03 12.48,-10.75 26.53,-17.54 42.15,-20.36 18.9,-3.43 37.41,-0.84 55.52,7.77 18.1,8.6 29.02,23.18 32.74,43.72 0.6,3.29 1.15,6.37 1.68,9.25 0.52,2.88 0.33,6.52 -0.57,10.93 -7.44,66.7 -29.35,122.66 -65.73,167.87 -36.38,45.21 -84.56,73.24 -144.56,84.11 -66.57,12.05 -121.8,-0.01 -165.7,-36.2l-35.56 63.74c-21.47,36.14 -40.69,65.93 -57.67,89.38 -16.97,23.45 -35.08,41.79 -54.33,55.04 -19.24,13.24 -43.66,22.55 -73.25,27.9 -47.67,8.63 -90.15,0.2 -127.45,-25.3 -37.3,-25.5 -60.93,-65.78 -70.9,-120.85 -3.72,-20.55 -5.13,-42.36 -4.21,-65.44l17.22 -418.19c1.81,-27.49 11.12,-49.97 27.9,-67.44 16.78,-17.47 36.27,-28.21 58.46,-32.23 21.36,-3.87 41.98,-0.17 61.84,11.08 19.86,11.26 32.47,31.68 37.83,61.27 2.23,12.33 2.82,24.95 1.77,37.88l-22.03 412.68c-1.06,12.93 -0.54,25.14 1.54,36.64 1.34,7.4 4.07,10.73 8.17,9.98 5.75,-1.04 12.74,-6.98 20.97,-17.8 8.22,-10.82 16.36,-23.33 24.4,-37.52 8.04,-14.19 14.12,-26.33 18.23,-36.4l49.27 -114.6c-14.32,-22.87 -24.17,-49.09 -29.52,-78.68 -5.96,-32.88 -6.99,-67.91 -3.12,-105.11 3.87,-37.2 12.68,-72.95 26.41,-107.27 13.73,-34.32 31.8,-63.48 54.18,-87.48 22.39,-24 49.2,-38.83 80.44,-44.48 33.7,-6.1 60.89,-1.26 81.57,14.52 20.68,15.77 33.77,38.87 39.28,69.28 6.1,33.7 2.68,71.03 -10.28,111.99 -12.96,40.97 -30.77,94.91 -53.46,161.83 -1.88,13.07 -1.93,24.54 -0.14,34.4 2.98,16.44 10.64,29.48 23,39.12 12.36,9.65 28.81,12.61 49.36,8.89 23.01,-4.17 40.87,-15.68 53.59,-34.54 12.72,-18.85 21.81,-43.63 27.28,-74.33z"/>
   <path class="fil6" d="M10391.4 4343.85c18.08,-3.27 34.87,-0.8 50.36,7.43 15.49,8.23 25.18,23.03 29.05,44.39 1.94,10.69 1.51,24.76 -1.26,42.25 -2.78,17.48 -6.53,38.95 -11.25,64.43 -14.24,71.33 -36.38,128.39 -66.41,171.18 -30.02,42.78 -63.25,74.9 -99.69,96.35 -36.43,21.45 -71.91,35.3 -106.43,41.56 -12.33,2.23 -29.27,3.6 -50.82,4.11 -21.56,0.5 -43.66,-2.07 -66.33,-7.73 -22.67,-5.66 -42.29,-16.75 -58.86,-33.27 -19.29,24.72 -42.04,45.6 -68.23,62.65 -26.2,17.06 -53.68,28.18 -82.45,33.39 -36.16,6.55 -70.15,4 -101.96,-7.64 -31.82,-11.64 -58.71,-30.11 -80.7,-55.41 -21.98,-25.3 -36.03,-54.8 -42.13,-88.5 -2.09,-11.51 -2.9,-23.03 -2.44,-34.58 0.46,-11.54 1.36,-22.95 2.71,-34.23l55.84 -352.6c7.8,-50.65 29.39,-90.84 64.74,-120.58 35.36,-29.75 73.17,-48.26 113.44,-55.55 31.23,-5.66 59.23,-6.91 83.99,-3.75 24.76,3.15 44.46,7.65 59.1,13.49 7.04,-17.4 18.07,-31.49 33.09,-42.28 15.03,-10.78 31.17,-17.74 48.43,-20.87 23.01,-4.17 45.02,-0.93 66.05,9.69 21.02,10.62 33.98,29.49 38.9,56.62 2.23,12.33 2.22,26.33 -0.03,42.02l-65.74 424.42c-1.43,15.54 -1.33,27.83 0.31,36.87 3.72,20.54 16.68,28.81 38.86,24.79 18.9,-3.43 38.09,-13.48 57.57,-30.16 19.47,-16.68 37.21,-41.75 53.22,-75.21 16.01,-33.46 27.28,-76.66 33.82,-129.62 3.08,-25.17 12.08,-44.63 26.99,-58.36 14.91,-13.74 31,-22.17 48.26,-25.29zm-409.05 61.34c4.21,-33.02 4.75,-58.15 1.62,-75.41 -3.87,-21.37 -12.15,-36.63 -24.84,-45.79 -12.69,-9.16 -24.79,-12.7 -36.3,-10.61 -9.87,1.79 -21.54,8.78 -35.03,20.98 -13.49,12.21 -22.57,38.25 -27.23,78.14l-34.03 262.08c-0.6,6.05 -1.09,12.72 -1.47,20 -0.37,7.29 0.18,15.03 1.67,23.26 5.51,30.41 21.82,43.16 48.94,38.25 13.15,-2.38 28.43,-11.73 45.85,-28.04 17.42,-16.31 29.06,-45.79 34.91,-88.44l25.92 -194.4z"/>
   <path class="fil7" d="M4304.84 5689.96c44.02,-33.44 82.19,-73.45 114.5,-120.04 32.31,-46.59 54.31,-103.2 66.01,-169.83 4.73,-25.47 14.1,-45.21 28.12,-59.21 14.02,-13.99 29.24,-22.48 45.68,-25.46 18.9,-3.42 36.18,-0.61 51.82,8.44 15.64,9.05 25.4,24.26 29.27,45.63 1.79,9.86 1.85,19.61 0.2,29.25 -9.62,68.79 -26.31,128.9 -50.11,180.32 -23.79,51.42 -52.58,96.31 -86.38,134.68 -33.79,38.38 -70.4,71.74 -109.83,100.1 -39.43,28.36 -80.07,53.55 -121.92,75.55l-28.36 166.83c-12.53,76.12 -42.04,135.78 -88.54,179 -46.49,43.22 -100.15,70.33 -160.97,81.35 -40.27,7.29 -79.56,5.92 -117.88,-4.12 -38.31,-10.04 -71.08,-28.08 -98.29,-54.13 -27.21,-26.05 -44.39,-58.81 -51.53,-98.26 -3.42,-18.9 -4.04,-38.74 -1.86,-59.5 4.88,-43.33 21.53,-80.29 49.94,-110.9 28.41,-30.61 62.1,-56.66 101.08,-78.14 38.97,-21.49 76.7,-39.35 113.16,-53.59 -43.55,-1.45 -82.98,-15.32 -118.3,-41.6 -35.31,-26.29 -57.36,-63.67 -66.14,-112.16 -4.47,-24.65 -4.64,-51.36 -0.5,-80.12l50.76 -317.31c10.13,-61.25 34.35,-109.13 72.66,-143.66 38.31,-34.52 80.07,-55.88 125.27,-64.06 32.87,-5.95 62.5,-6.44 88.86,-1.45 26.37,4.99 51.83,16.72 76.4,35.19 3.53,-22.71 13.03,-40.55 28.5,-53.54 15.47,-12.99 32.25,-21.12 50.33,-24.39 9.04,-1.64 17.48,-1.89 25.32,-0.76 6.05,0.6 13.6,2.42 22.63,5.45 9.04,3.04 17.91,8.64 26.6,16.83 8.7,8.19 14.76,21.73 18.18,40.63 3.13,17.26 2.81,38.96 -0.95,65.1l-83.74 507.89zm-121.99 -371.33c0.22,-3.44 0.08,-6.59 -0.44,-9.47 -0.52,-2.88 -1.01,-5.55 -1.45,-8.01 -4.02,-22.19 -14.41,-38.56 -31.17,-49.1 -16.76,-10.55 -34.6,-14.11 -53.5,-10.69 -13.15,2.38 -25.31,9.04 -36.49,19.98 -11.17,10.93 -18.49,25.63 -21.94,44.08l-54.25 333.21c-0.08,4.26 -0.32,8.76 -0.74,13.5 -0.41,4.75 -0.32,8.76 0.27,12.05 2.38,13.15 9.18,22.53 20.38,28.14 11.2,5.61 24.2,7.08 38.99,4.4 21.37,-3.87 40.29,-15.36 56.78,-34.47 16.49,-19.11 28.81,-41.29 36.97,-66.53l46.59 -277.08zm-125.98 668.32c-38.34,17.98 -70.28,36.07 -95.85,54.28 -25.56,18.21 -40.93,38.82 -46.1,61.82 -2.32,10.6 -2.81,19.61 -1.47,27 1.94,10.69 7.1,19.3 15.5,25.84 8.4,6.54 19.58,8.55 33.55,6.01 18.9,-3.42 35.94,-12.45 51.12,-27.08 15.18,-14.63 24.79,-34.2 28.84,-58.7l14.41 -89.19z"/>
   <path class="fil7" d="M5152.03 5278.1c3,-20.92 11.08,-37.23 24.24,-48.95 13.16,-11.72 27.54,-18.99 43.16,-21.82 18.9,-3.42 37.16,-1 54.79,7.27 17.62,8.27 28.22,22.26 31.8,41.99 1.34,7.4 1.44,15.02 0.32,22.86 -13.29,90.68 -34.52,163.28 -63.69,217.8 -29.17,54.51 -62.56,95.15 -100.15,121.9 -37.59,26.76 -76.12,43.7 -115.57,50.85 -36.98,6.7 -72.47,5.27 -106.45,-4.28 -33.98,-9.55 -62.4,-25.84 -85.24,-48.86 -18.55,28.82 -40.55,53.81 -66,74.97 -25.45,21.16 -56.67,35.09 -93.66,41.78 -34.52,6.25 -67.01,4.92 -97.49,-3.99 -30.47,-8.91 -56.23,-24.62 -77.29,-47.12 -21.05,-22.5 -34.55,-50.19 -40.5,-83.06 -3.87,-21.37 -4.11,-43.81 -0.73,-67.34l68.11 -446.5c4.58,-26.29 14.08,-46.48 28.51,-60.55 14.43,-14.07 30.27,-22.67 47.53,-25.79 23.01,-4.17 45.17,-0.12 66.49,12.15 21.32,12.27 34.28,31.14 38.9,56.61 2.09,11.51 1.93,24.69 -0.48,39.56l-64.72 408.96c-1.58,14.71 -1.33,27.82 0.75,39.33 3.72,20.54 15.03,29.11 33.94,25.68 24.65,-4.47 47.04,-21.47 67.16,-50.99 20.12,-29.53 35.75,-62.71 46.91,-99.53l67.07 -403.02c4.28,-27.93 13.84,-48.98 28.68,-63.12 14.84,-14.14 31.3,-22.86 49.38,-26.13 22.19,-4.02 43.7,-0.06 64.54,11.86 20.83,11.93 33.48,30.23 37.95,54.88 1.04,5.75 1.64,11.37 1.79,16.87 0.14,5.49 -0.42,11.75 -1.7,18.77l-72.14 438.31c-1.42,6.2 -1.54,12.59 -0.35,19.16 1.49,8.22 6.25,14.57 14.28,19.06 8.03,4.49 17.38,5.77 28.06,3.83 28.77,-5.21 55.95,-27.32 81.57,-66.34 25.61,-39.01 45.7,-98.03 60.24,-177.06z"/>
   <path class="fil7" d="M5872.34 5086.55c18.08,-3.28 34.87,-0.8 50.37,7.43 15.49,8.23 25.18,23.03 29.05,44.39 1.93,10.69 1.51,24.76 -1.27,42.25 -2.77,17.48 -6.53,38.95 -11.25,64.43 -14.25,71.33 -36.38,128.39 -66.41,171.18 -30.02,42.79 -63.25,74.9 -99.69,96.35 -36.43,21.45 -71.91,35.3 -106.43,41.56 -12.33,2.23 -29.27,3.6 -50.81,4.11 -21.56,0.5 -43.66,-2.07 -66.33,-7.73 -22.67,-5.66 -42.29,-16.74 -58.86,-33.27 -19.29,24.71 -42.04,45.6 -68.23,62.64 -26.19,17.06 -53.68,28.18 -82.44,33.39 -36.16,6.55 -70.15,4 -101.96,-7.64 -31.82,-11.64 -58.72,-30.11 -80.7,-55.41 -21.98,-25.3 -36.02,-54.8 -42.12,-88.5 -2.09,-11.51 -2.9,-23.03 -2.44,-34.57 0.45,-11.54 1.36,-22.95 2.71,-34.23l55.83 -352.6c7.8,-50.65 29.39,-90.84 64.74,-120.58 35.36,-29.75 73.18,-48.26 113.44,-55.56 31.24,-5.66 59.23,-6.9 84,-3.75 24.76,3.16 44.46,7.65 59.1,13.49 7.04,-17.4 18.06,-31.49 33.09,-42.28 15.02,-10.78 31.16,-17.74 48.42,-20.87 23.01,-4.17 45.03,-0.93 66.05,9.69 21.02,10.62 33.99,29.49 38.9,56.62 2.23,12.33 2.22,26.33 -0.03,42.02l-65.74 424.42c-1.43,15.54 -1.33,27.83 0.3,36.87 3.72,20.54 16.68,28.81 38.87,24.79 18.9,-3.43 38.09,-13.48 57.56,-30.16 19.47,-16.68 37.21,-41.75 53.23,-75.21 16.01,-33.46 27.28,-76.66 33.82,-129.62 3.08,-25.17 12.08,-44.63 26.99,-58.36 14.91,-13.74 31,-22.16 48.26,-25.29zm-409.05 61.34c4.21,-33.02 4.75,-58.15 1.62,-75.41 -3.87,-21.37 -12.15,-36.63 -24.84,-45.79 -12.69,-9.16 -24.79,-12.7 -36.3,-10.61 -9.86,1.79 -21.54,8.78 -35.03,20.99 -13.49,12.2 -22.57,38.25 -27.23,78.14l-34.03 262.08c-0.6,6.05 -1.1,12.72 -1.47,20 -0.37,7.28 0.18,15.03 1.67,23.25 5.51,30.41 21.82,43.16 48.94,38.25 13.15,-2.38 28.43,-11.73 45.85,-28.04 17.42,-16.31 29.06,-45.79 34.91,-88.44l25.92 -194.4z"/>
   <path class="fil7" d="M6382.31 5055.33c2.33,-19.94 9.78,-35.08 22.33,-45.42 12.56,-10.34 26.65,-16.92 42.26,-19.75 19.73,-3.58 39.01,-1.33 57.87,6.71 18.86,8.04 30,21.52 33.42,40.42 1.04,5.75 1,12.55 -0.12,20.39 -17.26,110.92 -49.7,200.19 -97.29,267.8 -47.59,67.61 -105.09,107.52 -172.48,119.72 -33.7,6.1 -66.27,4.36 -97.71,-5.23 -31.45,-9.59 -58.01,-26.21 -79.69,-49.87 -21.68,-23.66 -35.73,-53.16 -42.12,-88.5 -4.47,-24.65 -4.3,-51.85 0.5,-81.58l27.01 -160.22c0.83,-9.49 0.72,-17.11 -0.32,-22.86 -2.53,-13.98 -8.78,-23.87 -18.75,-29.71 -9.97,-5.83 -21.53,-9.9 -34.67,-12.18 -13.15,-2.29 -25.77,-4.03 -37.87,-5.24l-35.55 197.42c-3.82,21.06 -12.86,37.97 -27.1,50.74 -14.24,12.76 -29.99,20.71 -47.25,23.83 -17.26,3.13 -33.6,0.78 -49.02,-7.04 -15.43,-7.82 -24.99,-22 -28.71,-42.54 -1.49,-8.22 -1.89,-17.48 -1.21,-27.79l46.02 -259.16c-25.16,-21.76 -40.72,-49.07 -46.67,-81.95 -6.4,-35.34 -1.79,-68.43 13.85,-99.27 15.64,-30.84 41.53,-49.53 77.7,-56.08 27.94,-5.06 54.46,0.75 79.55,17.43 25.09,16.68 40.24,39.4 45.45,68.16 2.09,11.51 2.3,22.08 0.65,31.71 18.15,1.81 40.2,5.24 66.16,10.3 25.96,5.06 52.19,12.83 78.71,23.31 26.51,10.48 49.47,24.78 68.88,42.91 19.41,18.13 31.79,41.99 37.15,71.57 1.94,10.69 2.88,21.77 2.84,33.23 -0.05,11.47 -1.01,23.74 -2.89,36.81l-36.13 215.34c-1.65,9.64 -1.66,18.97 -0.02,28.02 1.49,8.22 5.13,15.41 10.91,21.58 5.79,6.17 12.79,8.51 21,7.02 26.3,-4.76 50.39,-29.92 72.28,-75.47 21.88,-45.55 38.9,-100.41 51.05,-164.57z"/>
   <path class="fil7" d="M7102.62 4863.78c18.08,-3.27 34.87,-0.8 50.36,7.43 15.49,8.23 25.18,23.03 29.05,44.39 1.94,10.69 1.51,24.76 -1.27,42.25 -2.77,17.48 -6.53,38.95 -11.25,64.43 -14.24,71.33 -36.38,128.39 -66.41,171.18 -30.02,42.78 -63.25,74.9 -99.69,96.35 -36.43,21.45 -71.91,35.3 -106.43,41.56 -12.33,2.23 -29.27,3.6 -50.81,4.11 -21.56,0.5 -43.66,-2.07 -66.33,-7.73 -22.67,-5.66 -42.29,-16.75 -58.86,-33.27 -19.29,24.72 -42.04,45.6 -68.24,62.65 -26.19,17.06 -53.68,28.18 -82.44,33.39 -36.16,6.55 -70.15,4 -101.96,-7.64 -31.82,-11.64 -58.72,-30.11 -80.7,-55.41 -21.99,-25.3 -36.03,-54.8 -42.13,-88.5 -2.09,-11.51 -2.9,-23.03 -2.44,-34.58 0.45,-11.54 1.36,-22.95 2.71,-34.23l55.84 -352.6c7.8,-50.65 29.39,-90.84 64.74,-120.58 35.35,-29.75 73.17,-48.26 113.44,-55.55 31.23,-5.66 59.23,-6.91 83.99,-3.75 24.76,3.15 44.46,7.65 59.1,13.49 7.04,-17.4 18.07,-31.49 33.09,-42.28 15.03,-10.78 31.17,-17.74 48.42,-20.87 23.01,-4.17 45.03,-0.93 66.05,9.69 21.02,10.62 33.98,29.49 38.9,56.62 2.23,12.33 2.22,26.33 -0.03,42.02l-65.74 424.42c-1.43,15.54 -1.33,27.83 0.31,36.87 3.72,20.54 16.68,28.81 38.86,24.79 18.9,-3.43 38.09,-13.48 57.57,-30.16 19.47,-16.68 37.21,-41.75 53.22,-75.21 16.01,-33.46 27.28,-76.66 33.82,-129.62 3.08,-25.17 12.07,-44.63 26.99,-58.36 14.91,-13.74 31,-22.17 48.26,-25.29zm-409.05 61.34c4.21,-33.02 4.75,-58.15 1.62,-75.41 -3.87,-21.37 -12.15,-36.63 -24.84,-45.79 -12.69,-9.16 -24.79,-12.7 -36.3,-10.61 -9.86,1.79 -21.54,8.78 -35.03,20.98 -13.49,12.21 -22.57,38.25 -27.23,78.14l-34.03 262.08c-0.6,6.05 -1.09,12.72 -1.47,20 -0.37,7.29 0.18,15.03 1.67,23.26 5.51,30.41 21.82,43.16 48.94,38.25 13.15,-2.38 28.43,-11.73 45.85,-28.04 17.42,-16.31 29.06,-45.79 34.91,-88.44l25.92 -194.4z"/>
   <path class="fil7" d="M7659.88 4826.54c3.09,-25.17 11.88,-44.59 26.38,-58.25 14.5,-13.66 29.97,-21.98 46.41,-24.95 18.9,-3.43 36.59,-0.68 53.05,8.22 16.47,8.9 26.56,23.63 30.28,44.17 1.34,7.4 1.07,17.63 -0.8,30.7 -19.14,124 -67.24,219.29 -144.31,285.86 -77.07,66.58 -175.59,110.74 -295.59,132.46 -103.55,18.75 -177.8,16.49 -222.76,-6.77l-45.72 310.03c-3.23,24.35 -12.96,43.3 -29.17,56.85 -16.22,13.54 -34.61,22.18 -55.15,25.9 -22.2,4.02 -43.28,1.26 -63.25,-8.28 -19.98,-9.54 -32.27,-27.05 -36.89,-52.53 -2.38,-13.15 -2.03,-27.64 1.04,-43.48l149.82 -923.46c4.28,-27.93 14.41,-49.29 30.41,-64.07 16,-14.78 34.27,-24.03 54.82,-27.75 22.19,-4.02 42.85,-2.46 61.97,4.69 19.12,7.15 29.2,18.27 30.23,33.36 11.89,-14.04 26.53,-24.54 43.95,-31.52 17.41,-6.97 34.34,-11.94 50.77,-14.92 32.05,-5.8 63.16,-2.74 93.34,9.2 30.17,11.94 56.01,30.39 77.5,55.35 21.5,24.97 35.3,54.3 41.4,88 3.87,21.37 4.04,43.4 0.51,66.11 -8.63,50.79 -17.27,102.65 -25.94,155.57 -8.67,52.92 -17.39,104.37 -26.17,154.34l-6.41 27.89c39.91,-23.35 73.94,-54.56 102.09,-93.6 28.15,-39.05 47.56,-85.42 58.2,-139.13zm-474.82 218.39c-1.65,9.64 -1.58,19.39 0.2,29.25 3.13,17.26 11.02,29.2 23.67,35.82 12.66,6.62 26.79,8.52 42.41,5.69 16.29,-3.8 31.07,-12.42 44.34,-25.85 13.27,-13.44 21.55,-29.79 24.85,-49.06 7.65,-51.46 15.7,-101.94 24.15,-151.42 8.43,-49.48 16.07,-99.89 22.91,-151.2 1.58,-14.72 1.55,-26.59 -0.08,-35.63 -2.83,-15.62 -10.86,-27.11 -24.07,-34.48 -13.22,-7.37 -27.22,-9.71 -42.01,-7.04 -17.26,3.13 -32.32,11.37 -45.18,24.73 -12.86,13.37 -20.97,31.81 -24.35,55.34l-46.83 303.86z"/>
   <path class="fil7" d="M8325.12 4703.53c3,-20.92 11.08,-37.24 24.24,-48.95 13.16,-11.71 27.54,-18.99 43.16,-21.82 18.9,-3.43 37.17,-1 54.79,7.27 17.62,8.26 28.23,22.26 31.8,41.99 1.34,7.39 1.45,15.01 0.32,22.86 -13.29,90.68 -34.52,163.28 -63.7,217.79 -29.17,54.51 -62.56,95.15 -100.15,121.9 -37.59,26.76 -76.12,43.7 -115.57,50.85 -36.98,6.7 -72.47,5.27 -106.45,-4.28 -33.98,-9.55 -62.4,-25.84 -85.24,-48.86 -18.55,28.82 -40.55,53.81 -66,74.97 -25.45,21.16 -56.67,35.09 -93.66,41.79 -34.52,6.25 -67.01,4.92 -97.48,-4 -30.47,-8.91 -56.24,-24.62 -77.29,-47.12 -21.05,-22.5 -34.55,-50.19 -40.5,-83.07 -3.87,-21.37 -4.12,-43.81 -0.74,-67.34l68.12 -446.5c4.58,-26.29 14.08,-46.48 28.51,-60.55 14.43,-14.07 30.27,-22.67 47.53,-25.79 23.01,-4.17 45.17,-0.12 66.49,12.15 21.32,12.27 34.28,31.14 38.9,56.62 2.09,11.51 1.93,24.69 -0.47,39.56l-64.72 408.96c-1.58,14.71 -1.33,27.82 0.75,39.33 3.72,20.55 15.03,29.11 33.93,25.69 24.66,-4.47 47.04,-21.47 67.16,-50.99 20.12,-29.53 35.75,-62.71 46.91,-99.53l67.08 -403.02c4.28,-27.94 13.84,-48.98 28.68,-63.12 14.84,-14.14 31.3,-22.85 49.38,-26.13 22.19,-4.02 43.7,-0.06 64.54,11.87 20.83,11.93 33.48,30.22 37.95,54.88 1.04,5.75 1.64,11.37 1.79,16.86 0.15,5.49 -0.42,11.75 -1.7,18.77l-72.14 438.32c-1.42,6.2 -1.54,12.59 -0.35,19.16 1.49,8.22 6.24,14.57 14.27,19.06 8.03,4.49 17.38,5.77 28.06,3.83 28.77,-5.21 55.95,-27.32 81.57,-66.33 25.61,-39.01 45.7,-98.04 60.25,-177.06z"/>
   <path class="fil7" d="M9045.43 4511.99c18.08,-3.27 34.87,-0.8 50.36,7.43 15.49,8.23 25.18,23.03 29.05,44.39 1.94,10.69 1.51,24.76 -1.27,42.24 -2.77,17.48 -6.53,38.96 -11.25,64.43 -14.24,71.33 -36.38,128.39 -66.41,171.17 -30.02,42.79 -63.25,74.9 -99.69,96.35 -36.43,21.45 -71.91,35.3 -106.43,41.56 -12.33,2.23 -29.27,3.6 -50.81,4.11 -21.56,0.51 -43.66,-2.07 -66.33,-7.73 -22.67,-5.66 -42.29,-16.74 -58.86,-33.27 -19.3,24.72 -42.04,45.6 -68.24,62.65 -26.19,17.05 -53.68,28.18 -82.44,33.39 -36.16,6.55 -70.15,4 -101.96,-7.64 -31.82,-11.64 -58.72,-30.11 -80.7,-55.41 -21.99,-25.3 -36.03,-54.8 -42.13,-88.5 -2.09,-11.51 -2.9,-23.03 -2.44,-34.57 0.45,-11.54 1.36,-22.95 2.71,-34.23l55.83 -352.6c7.81,-50.65 29.39,-90.84 64.75,-120.58 35.35,-29.75 73.17,-48.26 113.44,-55.55 31.23,-5.66 59.23,-6.91 83.99,-3.75 24.76,3.15 44.46,7.65 59.1,13.49 7.04,-17.4 18.07,-31.5 33.09,-42.28 15.03,-10.78 31.17,-17.74 48.42,-20.87 23.01,-4.17 45.03,-0.93 66.05,9.68 21.02,10.62 33.98,29.5 38.9,56.62 2.23,12.33 2.22,26.33 -0.03,42.02l-65.74 424.42c-1.43,15.54 -1.33,27.83 0.31,36.87 3.72,20.54 16.68,28.81 38.86,24.79 18.9,-3.42 38.09,-13.47 57.56,-30.16 19.48,-16.68 37.21,-41.75 53.23,-75.21 16.01,-33.45 27.28,-76.66 33.82,-129.62 3.08,-25.17 12.07,-44.63 26.99,-58.36 14.91,-13.73 31,-22.16 48.26,-25.29zm-409.05 61.34c4.21,-33.02 4.75,-58.15 1.62,-75.42 -3.87,-21.36 -12.15,-36.63 -24.84,-45.79 -12.69,-9.16 -24.79,-12.7 -36.3,-10.62 -9.86,1.79 -21.54,8.78 -35.03,20.99 -13.49,12.21 -22.57,38.25 -27.23,78.14l-34.03 262.08c-0.6,6.05 -1.09,12.72 -1.47,20 -0.37,7.29 0.18,15.03 1.67,23.25 5.51,30.41 21.82,43.16 48.94,38.25 13.15,-2.38 28.43,-11.73 45.85,-28.04 17.42,-16.31 29.06,-45.79 34.91,-88.44l25.92 -194.4z"/>
   <path class="fil7" d="M9611.78 4461.64c3.3,-19.27 11.19,-34.28 23.67,-45.03 12.49,-10.75 26.53,-17.53 42.15,-20.36 18.9,-3.42 37.41,-0.83 55.52,7.77 18.1,8.61 29.02,23.18 32.74,43.72 0.6,3.29 1.15,6.37 1.68,9.25 0.52,2.88 0.33,6.52 -0.58,10.93 -7.44,66.7 -29.35,122.66 -65.73,167.86 -36.38,45.21 -84.56,73.24 -144.56,84.11 -66.57,12.05 -121.8,-0.01 -165.7,-36.2l-35.56 63.73c-21.47,36.14 -40.69,65.93 -57.67,89.38 -16.97,23.44 -35.08,41.79 -54.33,55.04 -19.24,13.25 -43.66,22.55 -73.25,27.91 -47.67,8.63 -90.15,0.2 -127.45,-25.3 -37.3,-25.51 -60.93,-65.79 -70.9,-120.85 -3.72,-20.55 -5.12,-42.36 -4.21,-65.44l17.22 -418.18c1.81,-27.49 11.11,-49.97 27.9,-67.44 16.78,-17.47 36.27,-28.21 58.46,-32.23 21.37,-3.87 41.98,-0.18 61.84,11.08 19.87,11.26 32.47,31.68 37.83,61.27 2.23,12.33 2.82,24.95 1.77,37.87l-22.03 412.69c-1.06,12.92 -0.54,25.14 1.54,36.64 1.34,7.4 4.06,10.73 8.17,9.98 5.76,-1.04 12.75,-6.97 20.97,-17.8 8.22,-10.83 16.36,-23.33 24.4,-37.52 8.04,-14.19 14.12,-26.33 18.23,-36.4l49.27 -114.6c-14.32,-22.87 -24.17,-49.1 -29.53,-78.68 -5.95,-32.87 -6.99,-67.91 -3.12,-105.11 3.87,-37.2 12.68,-72.95 26.41,-107.27 13.73,-34.32 31.8,-63.48 54.18,-87.48 22.39,-24 49.2,-38.83 80.43,-44.48 33.7,-6.1 60.89,-1.26 81.57,14.52 20.68,15.77 33.77,38.87 39.28,69.27 6.1,33.7 2.68,71.03 -10.28,112 -12.95,40.97 -30.77,94.91 -53.45,161.83 -1.88,13.07 -1.93,24.54 -0.14,34.4 2.98,16.44 10.65,29.48 23,39.12 12.36,9.64 28.81,12.61 49.35,8.89 23.01,-4.17 40.88,-15.68 53.59,-34.54 12.71,-18.85 21.81,-43.63 27.28,-74.33z"/>
   <path class="fil7" d="M10332.42 4278.95c18.08,-3.28 34.87,-0.8 50.36,7.43 15.49,8.23 25.18,23.03 29.05,44.4 1.94,10.69 1.51,24.76 -1.27,42.24 -2.77,17.48 -6.53,38.96 -11.25,64.43 -14.24,71.33 -36.38,128.39 -66.41,171.18 -30.02,42.79 -63.25,74.9 -99.69,96.35 -36.43,21.45 -71.91,35.3 -106.43,41.55 -12.33,2.23 -29.27,3.6 -50.81,4.11 -21.56,0.51 -43.66,-2.07 -66.33,-7.73 -22.67,-5.66 -42.29,-16.74 -58.86,-33.27 -19.29,24.72 -42.04,45.6 -68.23,62.65 -26.19,17.05 -53.68,28.18 -82.44,33.39 -36.16,6.55 -70.15,4 -101.96,-7.64 -31.82,-11.64 -58.72,-30.11 -80.7,-55.41 -21.98,-25.3 -36.02,-54.8 -42.12,-88.5 -2.09,-11.51 -2.9,-23.03 -2.44,-34.57 0.45,-11.54 1.36,-22.95 2.71,-34.23l55.83 -352.6c7.81,-50.65 29.39,-90.84 64.74,-120.58 35.36,-29.75 73.18,-48.26 113.44,-55.56 31.23,-5.65 59.23,-6.9 83.99,-3.75 24.76,3.16 44.46,7.65 59.1,13.49 7.04,-17.4 18.06,-31.5 33.09,-42.28 15.03,-10.78 31.17,-17.74 48.42,-20.86 23.01,-4.17 45.03,-0.94 66.05,9.68 21.02,10.62 33.99,29.5 38.9,56.62 2.23,12.33 2.22,26.33 -0.03,42.02l-65.74 424.42c-1.43,15.54 -1.33,27.83 0.31,36.87 3.72,20.55 16.68,28.81 38.86,24.79 18.9,-3.42 38.09,-13.47 57.56,-30.16 19.47,-16.68 37.21,-41.75 53.23,-75.21 16.01,-33.45 27.28,-76.66 33.82,-129.62 3.08,-25.17 12.07,-44.63 26.99,-58.36 14.91,-13.74 31,-22.16 48.26,-25.29zm-409.05 61.34c4.21,-33.02 4.75,-58.15 1.62,-75.42 -3.87,-21.37 -12.15,-36.63 -24.84,-45.79 -12.69,-9.16 -24.79,-12.7 -36.3,-10.61 -9.86,1.79 -21.54,8.78 -35.03,20.99 -13.49,12.2 -22.57,38.25 -27.23,78.14l-34.03 262.08c-0.6,6.05 -1.1,12.72 -1.47,20 -0.37,7.29 0.18,15.03 1.67,23.25 5.51,30.41 21.82,43.16 48.94,38.25 13.15,-2.38 28.43,-11.73 45.85,-28.04 17.42,-16.31 29.06,-45.79 34.91,-88.45l25.92 -194.4z"/>
   <path class="fil8" d="M4245.85 5625.06c44.02,-33.44 82.19,-73.45 114.5,-120.04 32.31,-46.59 54.31,-103.2 66.01,-169.83 4.72,-25.47 14.1,-45.21 28.12,-59.2 14.02,-14 29.24,-22.48 45.68,-25.46 18.9,-3.43 36.18,-0.61 51.82,8.44 15.64,9.05 25.4,24.26 29.27,45.63 1.79,9.86 1.86,19.61 0.2,29.25 -9.61,68.79 -26.31,128.9 -50.11,180.32 -23.79,51.42 -52.59,96.31 -86.38,134.69 -33.8,38.37 -70.4,71.74 -109.83,100.1 -39.43,28.36 -80.07,53.55 -121.92,75.55l-28.36 166.83c-12.53,76.11 -42.04,135.78 -88.54,179 -46.49,43.22 -100.15,70.34 -160.97,81.35 -40.27,7.29 -79.56,5.92 -117.88,-4.12 -38.32,-10.04 -71.08,-28.08 -98.29,-54.14 -27.21,-26.05 -44.39,-58.8 -51.53,-98.25 -3.43,-18.9 -4.04,-38.74 -1.86,-59.51 4.89,-43.32 21.53,-80.29 49.94,-110.9 28.41,-30.61 62.1,-56.66 101.08,-78.15 38.97,-21.49 76.69,-39.35 113.16,-53.59 -43.55,-1.45 -82.99,-15.32 -118.3,-41.6 -35.32,-26.28 -57.36,-63.67 -66.14,-112.16 -4.46,-24.65 -4.63,-51.36 -0.5,-80.12l50.77 -317.31c10.13,-61.25 34.35,-109.13 72.66,-143.66 38.31,-34.52 80.07,-55.88 125.27,-64.06 32.87,-5.95 62.49,-6.44 88.86,-1.45 26.37,4.99 51.83,16.72 76.39,35.18 3.53,-22.7 13.03,-40.55 28.51,-53.54 15.47,-12.99 32.25,-21.12 50.33,-24.39 9.04,-1.64 17.48,-1.89 25.33,-0.76 6.05,0.6 13.59,2.42 22.63,5.45 9.04,3.03 17.9,8.64 26.6,16.83 8.7,8.19 14.76,21.73 18.18,40.64 3.13,17.26 2.81,38.96 -0.95,65.1l-83.74 507.89zm-121.99 -371.33c0.23,-3.44 0.08,-6.59 -0.44,-9.47 -0.52,-2.88 -1,-5.55 -1.45,-8.01 -4.02,-22.19 -14.41,-38.56 -31.17,-49.1 -16.76,-10.55 -34.6,-14.11 -53.5,-10.69 -13.15,2.38 -25.31,9.04 -36.49,19.97 -11.17,10.94 -18.49,25.63 -21.94,44.08l-54.25 333.21c-0.08,4.26 -0.33,8.76 -0.74,13.5 -0.41,4.75 -0.32,8.77 0.27,12.05 2.38,13.15 9.18,22.53 20.38,28.14 11.2,5.61 24.2,7.08 38.99,4.4 21.37,-3.87 40.29,-15.36 56.78,-34.47 16.49,-19.11 28.81,-41.29 36.97,-66.54l46.59 -277.08zm-125.98 668.32c-38.34,17.98 -70.29,36.07 -95.85,54.28 -25.56,18.21 -40.93,38.81 -46.1,61.82 -2.32,10.6 -2.81,19.6 -1.47,27 1.93,10.69 7.1,19.29 15.5,25.84 8.4,6.54 19.58,8.55 33.55,6.02 18.9,-3.43 35.94,-12.45 51.11,-27.08 15.18,-14.63 24.79,-34.2 28.84,-58.7l14.41 -89.19z"/>
   <path class="fil8" d="M5093.05 5213.19c3,-20.92 11.08,-37.24 24.24,-48.95 13.16,-11.71 27.55,-18.99 43.16,-21.82 18.9,-3.43 37.17,-1 54.79,7.26 17.62,8.27 28.23,22.26 31.8,41.99 1.34,7.39 1.45,15.01 0.32,22.86 -13.29,90.68 -34.52,163.28 -63.69,217.79 -29.18,54.51 -62.56,95.15 -100.16,121.9 -37.59,26.76 -76.12,43.7 -115.57,50.85 -36.98,6.7 -72.47,5.27 -106.45,-4.28 -33.98,-9.55 -62.4,-25.84 -85.24,-48.86 -18.55,28.82 -40.55,53.81 -65.99,74.97 -25.45,21.16 -56.67,35.09 -93.66,41.79 -34.51,6.25 -67.01,4.92 -97.48,-4 -30.47,-8.91 -56.23,-24.62 -77.29,-47.12 -21.05,-22.5 -34.55,-50.19 -40.5,-83.07 -3.87,-21.37 -4.11,-43.81 -0.73,-67.34l68.11 -446.5c4.58,-26.29 14.08,-46.48 28.51,-60.55 14.43,-14.07 30.27,-22.67 47.53,-25.79 23.01,-4.17 45.17,-0.12 66.49,12.15 21.32,12.27 34.28,31.14 38.9,56.62 2.09,11.51 1.93,24.69 -0.48,39.56l-64.72 408.96c-1.58,14.71 -1.33,27.82 0.75,39.33 3.72,20.55 15.03,29.11 33.94,25.69 24.65,-4.47 47.04,-21.47 67.16,-50.99 20.12,-29.53 35.75,-62.71 46.91,-99.53l67.07 -403.02c4.28,-27.94 13.84,-48.98 28.68,-63.12 14.84,-14.14 31.3,-22.85 49.38,-26.13 22.2,-4.02 43.7,-0.06 64.54,11.87 20.83,11.93 33.48,30.22 37.95,54.88 1.04,5.75 1.64,11.38 1.78,16.87 0.15,5.49 -0.42,11.75 -1.69,18.77l-72.15 438.32c-1.42,6.2 -1.54,12.59 -0.35,19.16 1.49,8.22 6.24,14.57 14.28,19.06 8.03,4.49 17.38,5.77 28.06,3.83 28.77,-5.21 55.95,-27.32 81.57,-66.33 25.62,-39.01 45.7,-98.04 60.25,-177.06z"/>
   <path class="fil8" d="M5813.36 5021.65c18.08,-3.27 34.87,-0.8 50.37,7.43 15.49,8.23 25.18,23.03 29.05,44.39 1.94,10.69 1.51,24.76 -1.26,42.24 -2.77,17.48 -6.53,38.96 -11.25,64.43 -14.24,71.33 -36.38,128.39 -66.4,171.17 -30.02,42.79 -63.25,74.9 -99.69,96.35 -36.43,21.45 -71.91,35.3 -106.43,41.56 -12.33,2.23 -29.27,3.6 -50.82,4.11 -21.55,0.51 -43.66,-2.07 -66.33,-7.73 -22.67,-5.66 -42.29,-16.74 -58.86,-33.27 -19.29,24.72 -42.04,45.6 -68.23,62.65 -26.2,17.05 -53.68,28.18 -82.44,33.39 -36.16,6.55 -70.15,4 -101.96,-7.64 -31.82,-11.64 -58.71,-30.11 -80.7,-55.41 -21.98,-25.3 -36.03,-54.8 -42.13,-88.5 -2.08,-11.51 -2.89,-23.03 -2.44,-34.57 0.45,-11.54 1.36,-22.95 2.71,-34.23l55.84 -352.6c7.8,-50.65 29.39,-90.84 64.74,-120.58 35.36,-29.75 73.17,-48.26 113.44,-55.55 31.23,-5.66 59.23,-6.91 84,-3.75 24.76,3.15 44.46,7.65 59.09,13.49 7.04,-17.4 18.07,-31.5 33.09,-42.28 15.02,-10.78 31.16,-17.74 48.42,-20.86 23.01,-4.17 45.02,-0.93 66.05,9.68 21.02,10.62 33.98,29.5 38.9,56.62 2.23,12.33 2.23,26.33 -0.03,42.02l-65.74 424.42c-1.43,15.54 -1.33,27.83 0.31,36.87 3.72,20.54 16.68,28.81 38.87,24.79 18.9,-3.42 38.09,-13.47 57.56,-30.16 19.47,-16.68 37.21,-41.75 53.22,-75.21 16.01,-33.45 27.29,-76.66 33.82,-129.62 3.08,-25.17 12.08,-44.63 26.99,-58.36 14.91,-13.74 31,-22.16 48.26,-25.29zm-409.05 61.34c4.21,-33.02 4.75,-58.15 1.62,-75.42 -3.87,-21.36 -12.15,-36.63 -24.84,-45.79 -12.69,-9.16 -24.79,-12.7 -36.3,-10.62 -9.87,1.79 -21.54,8.78 -35.03,20.99 -13.49,12.21 -22.57,38.25 -27.23,78.14l-34.03 262.08c-0.6,6.05 -1.1,12.72 -1.47,20 -0.37,7.29 0.18,15.03 1.67,23.25 5.51,30.41 21.82,43.16 48.93,38.25 13.15,-2.38 28.44,-11.73 45.85,-28.04 17.42,-16.31 29.06,-45.79 34.91,-88.44l25.91 -194.4z"/>
   <path class="fil8" d="M6323.33 4990.42c2.33,-19.94 9.77,-35.08 22.33,-45.42 12.56,-10.33 26.64,-16.92 42.26,-19.75 19.72,-3.57 39.01,-1.33 57.87,6.71 18.86,8.05 30,21.52 33.42,40.42 1.04,5.75 1,12.55 -0.13,20.39 -17.26,110.93 -49.69,200.19 -97.29,267.8 -47.6,67.61 -105.09,107.52 -172.48,119.72 -33.7,6.1 -66.27,4.36 -97.71,-5.22 -31.45,-9.59 -58.01,-26.21 -79.69,-49.87 -21.69,-23.66 -35.73,-53.16 -42.12,-88.5 -4.47,-24.65 -4.3,-51.85 0.5,-81.58l27.01 -160.23c0.83,-9.48 0.72,-17.11 -0.32,-22.86 -2.53,-13.97 -8.77,-23.87 -18.75,-29.71 -9.97,-5.83 -21.53,-9.9 -34.67,-12.18 -13.15,-2.29 -25.77,-4.03 -37.87,-5.24l-35.55 197.42c-3.82,21.06 -12.86,37.98 -27.1,50.74 -14.24,12.77 -29.99,20.71 -47.25,23.83 -17.26,3.13 -33.6,0.78 -49.02,-7.04 -15.42,-7.82 -24.99,-22 -28.71,-42.55 -1.49,-8.22 -1.89,-17.48 -1.21,-27.79l46.02 -259.15c-25.16,-21.76 -40.71,-49.07 -46.67,-81.95 -6.4,-35.34 -1.78,-68.43 13.85,-99.28 15.64,-30.84 41.53,-49.53 77.69,-56.08 27.95,-5.06 54.46,0.75 79.55,17.43 25.09,16.67 40.24,39.4 45.45,68.16 2.08,11.51 2.3,22.08 0.65,31.71 18.15,1.81 40.2,5.24 66.16,10.3 25.96,5.06 52.19,12.83 78.71,23.31 26.52,10.48 49.47,24.78 68.88,42.92 19.41,18.13 31.79,41.99 37.15,71.57 1.94,10.69 2.88,21.76 2.84,33.23 -0.05,11.46 -1.01,23.74 -2.89,36.8l-36.13 215.35c-1.65,9.63 -1.66,18.97 -0.02,28.01 1.49,8.22 5.12,15.41 10.91,21.58 5.79,6.16 12.79,8.51 21,7.02 26.3,-4.77 50.39,-29.92 72.28,-75.48 21.88,-45.55 38.9,-100.41 51.05,-164.57z"/>
   <path class="fil8" d="M7043.64 4798.88c18.08,-3.28 34.87,-0.8 50.37,7.43 15.49,8.23 25.18,23.03 29.05,44.4 1.93,10.69 1.51,24.76 -1.27,42.24 -2.77,17.48 -6.53,38.95 -11.25,64.43 -14.25,71.33 -36.38,128.39 -66.41,171.18 -30.02,42.79 -63.25,74.9 -99.69,96.35 -36.43,21.45 -71.91,35.3 -106.43,41.55 -12.33,2.23 -29.27,3.6 -50.81,4.11 -21.56,0.51 -43.66,-2.07 -66.33,-7.73 -22.67,-5.66 -42.29,-16.74 -58.86,-33.27 -19.29,24.72 -42.04,45.6 -68.23,62.65 -26.19,17.05 -53.68,28.18 -82.44,33.39 -36.16,6.55 -70.15,4 -101.96,-7.64 -31.82,-11.64 -58.72,-30.11 -80.7,-55.41 -21.98,-25.3 -36.02,-54.8 -42.12,-88.5 -2.09,-11.51 -2.9,-23.03 -2.44,-34.57 0.45,-11.54 1.36,-22.95 2.71,-34.23l55.83 -352.6c7.8,-50.65 29.39,-90.84 64.74,-120.58 35.36,-29.75 73.18,-48.26 113.44,-55.56 31.24,-5.65 59.23,-6.9 84,-3.75 24.76,3.16 44.46,7.65 59.1,13.49 7.04,-17.4 18.06,-31.5 33.09,-42.28 15.02,-10.78 31.16,-17.74 48.42,-20.86 23.01,-4.17 45.03,-0.94 66.05,9.68 21.02,10.62 33.99,29.5 38.9,56.62 2.23,12.33 2.22,26.33 -0.03,42.02l-65.75 424.42c-1.43,15.54 -1.33,27.83 0.31,36.87 3.72,20.55 16.68,28.81 38.87,24.79 18.9,-3.42 38.09,-13.47 57.56,-30.16 19.47,-16.68 37.21,-41.75 53.23,-75.21 16.01,-33.45 27.28,-76.66 33.82,-129.62 3.08,-25.17 12.08,-44.63 26.99,-58.36 14.91,-13.74 31,-22.16 48.26,-25.29zm-409.05 61.34c4.21,-33.02 4.75,-58.15 1.62,-75.42 -3.87,-21.37 -12.15,-36.63 -24.84,-45.79 -12.69,-9.16 -24.79,-12.7 -36.3,-10.61 -9.86,1.79 -21.54,8.78 -35.03,20.99 -13.49,12.2 -22.57,38.25 -27.23,78.14l-34.03 262.08c-0.6,6.05 -1.1,12.72 -1.47,20 -0.37,7.28 0.18,15.03 1.67,23.25 5.51,30.41 21.82,43.16 48.93,38.25 13.15,-2.38 28.44,-11.73 45.85,-28.04 17.42,-16.31 29.06,-45.79 34.91,-88.45l25.92 -194.4z"/>
   <path class="fil8" d="M7600.9 4761.63c3.09,-25.17 11.87,-44.59 26.38,-58.25 14.5,-13.66 29.97,-21.98 46.41,-24.95 18.9,-3.42 36.59,-0.68 53.05,8.22 16.46,8.9 26.56,23.63 30.28,44.17 1.34,7.39 1.07,17.63 -0.81,30.7 -19.14,123.99 -67.24,219.29 -144.31,285.86 -77.07,66.58 -175.59,110.73 -295.59,132.46 -103.55,18.75 -177.81,16.5 -222.76,-6.77l-45.72 310.03c-3.23,24.35 -12.96,43.3 -29.18,56.85 -16.22,13.54 -34.6,22.18 -55.15,25.9 -22.19,4.02 -43.27,1.26 -63.25,-8.29 -19.98,-9.53 -32.27,-27.05 -36.89,-52.53 -2.38,-13.15 -2.03,-27.64 1.04,-43.48l149.82 -923.46c4.27,-27.94 14.41,-49.3 30.41,-64.07 16,-14.78 34.27,-24.03 54.82,-27.75 22.19,-4.02 42.85,-2.45 61.97,4.69 19.12,7.15 29.2,18.27 30.23,33.36 11.88,-14.04 26.53,-24.54 43.94,-31.51 17.41,-6.97 34.34,-11.95 50.78,-14.92 32.05,-5.8 63.16,-2.74 93.34,9.2 30.17,11.94 56.01,30.39 77.5,55.35 21.49,24.97 35.29,54.3 41.39,88 3.87,21.37 4.04,43.41 0.51,66.12 -8.63,50.79 -17.27,102.65 -25.94,155.57 -8.67,52.92 -17.39,104.37 -26.16,154.34l-6.41 27.89c39.9,-23.35 73.94,-54.56 102.09,-93.6 28.15,-39.05 47.55,-85.43 58.2,-139.13zm-474.83 218.39c-1.65,9.64 -1.58,19.38 0.2,29.24 3.13,17.26 11.02,29.2 23.68,35.83 12.66,6.61 26.79,8.51 42.41,5.69 16.29,-3.8 31.07,-12.42 44.34,-25.86 13.27,-13.44 21.56,-29.79 24.85,-49.06 7.66,-51.46 15.71,-101.94 24.15,-151.43 8.44,-49.48 16.07,-99.89 22.91,-151.2 1.58,-14.72 1.56,-26.59 -0.08,-35.64 -2.83,-15.61 -10.85,-27.11 -24.07,-34.48 -13.22,-7.37 -27.22,-9.71 -42.02,-7.03 -17.26,3.13 -32.32,11.37 -45.18,24.73 -12.86,13.36 -20.97,31.81 -24.35,55.34l-46.84 303.86z"/>
   <path class="fil8" d="M8266.14 4638.63c3,-20.91 11.08,-37.23 24.24,-48.95 13.16,-11.72 27.54,-18.99 43.16,-21.82 18.9,-3.42 37.16,-1 54.79,7.27 17.62,8.27 28.22,22.26 31.8,41.99 1.34,7.4 1.44,15.02 0.32,22.86 -13.29,90.68 -34.52,163.28 -63.69,217.79 -29.17,54.51 -62.56,95.15 -100.15,121.9 -37.6,26.76 -76.12,43.71 -115.57,50.85 -36.98,6.7 -72.47,5.27 -106.45,-4.28 -33.98,-9.55 -62.4,-25.84 -85.24,-48.86 -18.55,28.82 -40.55,53.81 -66,74.97 -25.45,21.16 -56.67,35.09 -93.66,41.78 -34.52,6.25 -67.01,4.92 -97.49,-3.99 -30.47,-8.91 -56.23,-24.62 -77.29,-47.12 -21.05,-22.5 -34.55,-50.19 -40.5,-83.06 -3.87,-21.37 -4.11,-43.81 -0.73,-67.34l68.11 -446.5c4.58,-26.29 14.08,-46.48 28.51,-60.55 14.43,-14.07 30.27,-22.67 47.53,-25.79 23.01,-4.17 45.17,-0.11 66.49,12.15 21.32,12.27 34.28,31.14 38.9,56.61 2.09,11.51 1.93,24.69 -0.48,39.56l-64.72 408.96c-1.58,14.72 -1.33,27.82 0.75,39.33 3.72,20.54 15.03,29.11 33.94,25.68 24.65,-4.47 47.04,-21.46 67.16,-50.99 20.11,-29.53 35.75,-62.71 46.91,-99.53l67.07 -403.02c4.28,-27.94 13.84,-48.98 28.68,-63.12 14.84,-14.14 31.3,-22.86 49.38,-26.13 22.2,-4.02 43.7,-0.06 64.54,11.87 20.83,11.93 33.48,30.22 37.95,54.88 1.04,5.75 1.64,11.37 1.78,16.87 0.15,5.49 -0.42,11.75 -1.69,18.77l-72.14 438.31c-1.42,6.2 -1.54,12.59 -0.35,19.16 1.49,8.22 6.24,14.57 14.28,19.06 8.03,4.49 17.38,5.77 28.06,3.83 28.77,-5.21 55.95,-27.32 81.57,-66.34 25.62,-39.01 45.7,-98.03 60.25,-177.06z"/>
   <path class="fil8" d="M8986.44 4447.09c18.08,-3.28 34.87,-0.8 50.37,7.43 15.49,8.23 25.18,23.03 29.05,44.39 1.93,10.69 1.51,24.77 -1.27,42.25 -2.77,17.48 -6.53,38.95 -11.25,64.43 -14.25,71.33 -36.38,128.39 -66.41,171.18 -30.02,42.79 -63.25,74.9 -99.69,96.35 -36.43,21.45 -71.91,35.3 -106.43,41.56 -12.33,2.23 -29.27,3.6 -50.81,4.11 -21.56,0.5 -43.66,-2.07 -66.33,-7.73 -22.67,-5.66 -42.29,-16.74 -58.86,-33.27 -19.29,24.71 -42.04,45.6 -68.23,62.65 -26.19,17.05 -53.68,28.18 -82.44,33.39 -36.16,6.55 -70.15,4 -101.96,-7.64 -31.82,-11.64 -58.72,-30.11 -80.7,-55.41 -21.98,-25.3 -36.02,-54.8 -42.12,-88.5 -2.09,-11.51 -2.9,-23.03 -2.44,-34.57 0.45,-11.54 1.36,-22.95 2.71,-34.23l55.83 -352.6c7.8,-50.65 29.39,-90.84 64.74,-120.58 35.36,-29.75 73.18,-48.26 113.44,-55.56 31.24,-5.66 59.23,-6.9 84,-3.75 24.76,3.16 44.46,7.65 59.1,13.49 7.04,-17.4 18.06,-31.49 33.09,-42.28 15.02,-10.78 31.16,-17.74 48.42,-20.87 23.01,-4.17 45.03,-0.93 66.05,9.69 21.02,10.62 33.99,29.49 38.9,56.62 2.23,12.33 2.22,26.33 -0.03,42.02l-65.75 424.42c-1.43,15.54 -1.33,27.83 0.31,36.87 3.72,20.54 16.68,28.81 38.87,24.79 18.9,-3.43 38.09,-13.48 57.56,-30.16 19.47,-16.68 37.21,-41.75 53.23,-75.21 16.01,-33.46 27.28,-76.66 33.82,-129.62 3.08,-25.17 12.08,-44.63 26.99,-58.36 14.91,-13.74 31,-22.16 48.26,-25.29zm-409.05 61.34c4.21,-33.02 4.75,-58.15 1.62,-75.41 -3.87,-21.37 -12.15,-36.63 -24.84,-45.79 -12.69,-9.16 -24.79,-12.7 -36.3,-10.61 -9.86,1.79 -21.54,8.78 -35.03,20.99 -13.49,12.2 -22.57,38.25 -27.23,78.14l-34.03 262.08c-0.6,6.05 -1.1,12.72 -1.47,20 -0.37,7.28 0.18,15.03 1.67,23.25 5.51,30.41 21.82,43.16 48.93,38.25 13.15,-2.38 28.44,-11.73 45.85,-28.04 17.42,-16.31 29.06,-45.79 34.91,-88.44l25.92 -194.4z"/>
   <path class="fil8" d="M9552.79 4396.74c3.3,-19.27 11.19,-34.28 23.68,-45.03 12.49,-10.75 26.53,-17.54 42.15,-20.36 18.9,-3.43 37.41,-0.84 55.52,7.77 18.11,8.6 29.03,23.18 32.75,43.72 0.6,3.29 1.15,6.37 1.67,9.25 0.52,2.88 0.34,6.52 -0.57,10.93 -7.44,66.7 -29.35,122.66 -65.73,167.87 -36.38,45.21 -84.56,73.24 -144.56,84.11 -66.57,12.05 -121.8,-0.01 -165.7,-36.2l-35.57 63.74c-21.47,36.14 -40.69,65.93 -57.67,89.38 -16.97,23.45 -35.08,41.79 -54.33,55.04 -19.24,13.24 -43.66,22.55 -73.25,27.9 -47.67,8.63 -90.15,0.2 -127.45,-25.3 -37.3,-25.51 -60.93,-65.79 -70.9,-120.85 -3.72,-20.55 -5.13,-42.36 -4.21,-65.44l17.22 -418.19c1.81,-27.49 11.11,-49.97 27.9,-67.44 16.78,-17.47 36.27,-28.21 58.46,-32.23 21.37,-3.87 41.98,-0.17 61.84,11.08 19.86,11.25 32.47,31.68 37.83,61.26 2.23,12.33 2.82,24.95 1.77,37.88l-22.04 412.68c-1.06,12.93 -0.54,25.14 1.54,36.64 1.34,7.4 4.06,10.72 8.17,9.98 5.75,-1.04 12.75,-6.98 20.97,-17.8 8.22,-10.82 16.35,-23.33 24.4,-37.52 8.04,-14.19 14.12,-26.33 18.23,-36.4l49.27 -114.6c-14.32,-22.87 -24.17,-49.09 -29.53,-78.68 -5.95,-32.88 -6.99,-67.91 -3.12,-105.11 3.87,-37.2 12.68,-72.95 26.41,-107.27 13.73,-34.32 31.79,-63.48 54.18,-87.48 22.39,-24 49.21,-38.83 80.44,-44.48 33.7,-6.1 60.89,-1.27 81.57,14.51 20.68,15.77 33.77,38.87 39.28,69.28 6.1,33.7 2.68,71.03 -10.28,111.99 -12.95,40.97 -30.77,94.91 -53.46,161.83 -1.88,13.07 -1.92,24.54 -0.14,34.4 2.98,16.44 10.65,29.48 23,39.12 12.36,9.65 28.81,12.61 49.35,8.89 23.01,-4.17 40.87,-15.68 53.59,-34.54 12.71,-18.85 21.81,-43.63 27.28,-74.33z"/>
   <path class="fil8" d="M10273.43 4214.05c18.08,-3.27 34.87,-0.8 50.37,7.43 15.49,8.23 25.18,23.03 29.05,44.39 1.94,10.69 1.51,24.76 -1.26,42.25 -2.77,17.48 -6.53,38.95 -11.25,64.43 -14.25,71.33 -36.38,128.39 -66.41,171.18 -30.02,42.78 -63.25,74.9 -99.69,96.35 -36.44,21.45 -71.91,35.3 -106.43,41.56 -12.33,2.23 -29.27,3.6 -50.82,4.11 -21.55,0.5 -43.66,-2.07 -66.33,-7.73 -22.67,-5.66 -42.29,-16.75 -58.86,-33.27 -19.29,24.71 -42.04,45.6 -68.23,62.64 -26.19,17.06 -53.68,28.18 -82.44,33.39 -36.16,6.55 -70.15,4 -101.96,-7.64 -31.82,-11.64 -58.72,-30.11 -80.7,-55.41 -21.98,-25.3 -36.03,-54.8 -42.13,-88.5 -2.08,-11.51 -2.89,-23.03 -2.44,-34.57 0.45,-11.54 1.36,-22.95 2.71,-34.23l55.84 -352.6c7.8,-50.65 29.39,-90.84 64.74,-120.58 35.36,-29.75 73.17,-48.26 113.44,-55.55 31.23,-5.66 59.23,-6.9 84,-3.75 24.76,3.15 44.46,7.65 59.1,13.49 7.04,-17.4 18.06,-31.49 33.09,-42.28 15.02,-10.78 31.16,-17.74 48.42,-20.87 23.01,-4.17 45.03,-0.93 66.05,9.69 21.02,10.62 33.98,29.49 38.9,56.62 2.23,12.33 2.23,26.33 -0.03,42.02l-65.75 424.42c-1.43,15.54 -1.33,27.83 0.31,36.87 3.72,20.54 16.68,28.81 38.87,24.79 18.9,-3.43 38.09,-13.48 57.56,-30.16 19.47,-16.68 37.21,-41.75 53.23,-75.21 16.01,-33.46 27.28,-76.66 33.82,-129.62 3.08,-25.17 12.08,-44.63 26.99,-58.36 14.91,-13.74 31,-22.17 48.26,-25.29zm-409.05 61.34c4.21,-33.02 4.75,-58.15 1.62,-75.41 -3.87,-21.37 -12.15,-36.63 -24.84,-45.79 -12.69,-9.16 -24.79,-12.7 -36.3,-10.61 -9.86,1.79 -21.54,8.78 -35.03,20.98 -13.49,12.21 -22.57,38.25 -27.23,78.14l-34.03 262.08c-0.6,6.05 -1.1,12.72 -1.47,20 -0.37,7.29 0.18,15.03 1.67,23.26 5.51,30.41 21.82,43.16 48.93,38.25 13.15,-2.38 28.44,-11.73 45.85,-28.04 17.42,-16.31 29.06,-45.79 34.91,-88.44l25.91 -194.4z"/>
   <path class="fil4" d="M705.83 5278.89l-424.97 0 0 141.66 566.63 0 0 141.66 -708.28 0 0 -283.31c0,-25.97 6.34,-49.73 19.03,-71.27 12.69,-21.54 29.81,-38.66 51.35,-51.35 21.54,-12.69 45.3,-19.03 71.27,-19.03l424.97 0 0 -141.66 -566.63 0 0 -141.66 566.63 0c25.97,0 49.73,6.35 71.27,19.03 21.54,12.69 38.66,29.81 51.35,51.35 12.69,21.54 19.03,45.3 19.03,71.27l0 141.66c0,25.97 -6.35,49.73 -19.03,71.27 -12.69,21.54 -29.81,38.66 -51.35,51.35 -21.54,12.69 -45.3,19.03 -71.27,19.03z"/>
   <path class="fil4" d="M1213.14 5239.05c-38.36,0 -67.43,-10.92 -87.21,-32.76 -19.77,-21.84 -29.66,-52.23 -29.66,-91.19 0,-34.24 6.2,-65.81 18.59,-94.74 12.4,-28.92 30.84,-52.09 55.34,-69.5 24.49,-17.41 54.74,-26.12 90.75,-26.12 41.32,0 70.83,11.66 88.53,34.97 17.71,23.31 26.56,52.68 26.56,88.09 0,18.89 -2.66,39.4 -7.97,61.54 -5.31,22.13 -14.02,43.09 -26.12,62.86 -12.1,19.77 -28.63,35.86 -49.58,48.25 -20.95,12.4 -47.37,18.59 -79.24,18.59zm7.97 -70.83c14.16,0 25.97,-6.64 35.41,-19.92 9.44,-13.28 16.53,-29.66 21.25,-49.14 4.72,-19.48 7.08,-38.66 7.08,-57.55 0,-30.69 -10.92,-46.04 -32.76,-46.04 -14.17,0 -26.12,6.79 -35.86,20.36 -9.74,13.57 -17.12,30.1 -22.13,49.58 -5.02,19.48 -7.52,37.78 -7.52,54.89 0,31.88 11.51,47.81 34.53,47.81z"/>
   <path class="fil4" d="M2761.63 4995.58l0 141.66c0,19.48 -6.94,36.15 -20.81,50.02 -13.87,13.87 -30.54,20.81 -50.02,20.81 19.48,0 36.15,6.93 50.02,20.8 13.87,13.87 20.81,30.54 20.81,50.02l0 141.66c0,25.38 -6.35,48.84 -19.03,70.38 -12.69,21.54 -29.66,38.81 -50.91,51.79 -21.25,12.99 -45.15,19.48 -71.71,19.48l-566.63 0 0 -708.28 566.63 0c26.56,0 50.46,6.49 71.71,19.48 21.25,12.98 38.22,30.1 50.91,51.35 12.69,21.25 19.03,44.86 19.03,70.83zm-141.66 0l-424.97 0 0 141.66 424.97 0 0 -141.66zm-424.97 424.97l424.97 0 0 -141.66 -424.97 0 0 141.66z"/>
   <path class="fil5" d="M813.67 5303.78l-424.97 0 0 141.66 566.63 0 0 141.66 -708.28 0 0 -283.31c0,-25.97 6.34,-49.73 19.03,-71.27 12.69,-21.54 29.81,-38.66 51.35,-51.35 21.54,-12.69 45.3,-19.03 71.27,-19.03l424.97 0 0 -141.66 -566.63 0 0 -141.66 566.63 0c25.97,0 49.73,6.35 71.27,19.03 21.54,12.69 38.66,29.81 51.35,51.35 12.69,21.54 19.03,45.3 19.03,71.27l0 141.66c0,25.97 -6.35,49.73 -19.03,71.27 -12.69,21.54 -29.81,38.66 -51.35,51.35 -21.54,12.69 -45.3,19.03 -71.27,19.03z"/>
   <path class="fil5" d="M1320.97 5263.94c-38.36,0 -67.43,-10.92 -87.21,-32.76 -19.77,-21.84 -29.66,-52.23 -29.66,-91.19 0,-34.24 6.2,-65.81 18.59,-94.74 12.4,-28.92 30.84,-52.09 55.34,-69.5 24.49,-17.41 54.74,-26.12 90.75,-26.12 41.32,0 70.83,11.66 88.53,34.97 17.71,23.31 26.56,52.68 26.56,88.09 0,18.89 -2.66,39.4 -7.97,61.54 -5.31,22.13 -14.02,43.09 -26.12,62.86 -12.1,19.77 -28.63,35.86 -49.58,48.25 -20.95,12.4 -47.37,18.59 -79.24,18.59zm7.97 -70.83c14.16,0 25.97,-6.64 35.41,-19.92 9.44,-13.28 16.53,-29.66 21.25,-49.14 4.72,-19.48 7.08,-38.66 7.08,-57.55 0,-30.69 -10.92,-46.04 -32.76,-46.04 -14.17,0 -26.12,6.79 -35.86,20.36 -9.74,13.57 -17.12,30.1 -22.13,49.58 -5.02,19.48 -7.52,37.78 -7.52,54.89 0,31.88 11.51,47.81 34.53,47.81z"/>
   <path class="fil5" d="M2869.46 5020.47l0 141.66c0,19.48 -6.94,36.15 -20.81,50.02 -13.87,13.87 -30.54,20.81 -50.02,20.81 19.48,0 36.15,6.93 50.02,20.8 13.87,13.87 20.81,30.54 20.81,50.02l0 141.66c0,25.38 -6.35,48.84 -19.03,70.38 -12.69,21.54 -29.66,38.81 -50.91,51.79 -21.25,12.99 -45.15,19.48 -71.71,19.48l-566.63 0 0 -708.28 566.63 0c26.56,0 50.46,6.49 71.71,19.48 21.25,12.98 38.22,30.1 50.91,51.35 12.69,21.25 19.03,44.86 19.03,70.83zm-141.66 0l-424.97 0 0 141.66 424.97 0 0 -141.66zm-424.97 424.97l424.97 0 0 -141.66 -424.97 0 0 141.66z"/>
   <path class="fil0" d="M759.75 5291.34l-424.97 0 0 141.66 566.63 0 0 141.66 -708.28 0 0 -283.31c0,-25.97 6.34,-49.73 19.03,-71.27 12.69,-21.54 29.81,-38.66 51.35,-51.35 21.54,-12.69 45.3,-19.03 71.27,-19.03l424.97 0 0 -141.66 -566.63 0 0 -141.66 566.63 0c25.97,0 49.73,6.35 71.27,19.03 21.54,12.69 38.66,29.81 51.35,51.35 12.69,21.54 19.03,45.3 19.03,71.27l0 141.66c0,25.97 -6.35,49.73 -19.03,71.27 -12.69,21.54 -29.81,38.66 -51.35,51.35 -21.54,12.69 -45.3,19.03 -71.27,19.03z"/>
   <path class="fil0" d="M1267.05 5251.49c-38.36,0 -67.43,-10.92 -87.21,-32.76 -19.77,-21.84 -29.66,-52.23 -29.66,-91.19 0,-34.24 6.2,-65.81 18.59,-94.74 12.4,-28.92 30.84,-52.09 55.34,-69.5 24.49,-17.41 54.74,-26.12 90.75,-26.12 41.32,0 70.83,11.66 88.53,34.97 17.71,23.31 26.56,52.68 26.56,88.09 0,18.89 -2.66,39.4 -7.97,61.54 -5.31,22.13 -14.02,43.09 -26.12,62.86 -12.1,19.77 -28.63,35.86 -49.58,48.25 -20.95,12.4 -47.37,18.59 -79.24,18.59zm7.97 -70.83c14.16,0 25.97,-6.64 35.41,-19.92 9.44,-13.28 16.53,-29.66 21.25,-49.14 4.72,-19.48 7.08,-38.66 7.08,-57.55 0,-30.69 -10.92,-46.04 -32.76,-46.04 -14.17,0 -26.12,6.79 -35.86,20.36 -9.74,13.57 -17.12,30.1 -22.13,49.58 -5.02,19.48 -7.52,37.78 -7.52,54.89 0,31.88 11.51,47.81 34.53,47.81z"/>
   <path class="fil0" d="M2815.54 5008.02l0 141.66c0,19.48 -6.94,36.15 -20.81,50.02 -13.87,13.87 -30.54,20.81 -50.02,20.81 19.48,0 36.15,6.93 50.02,20.8 13.87,13.87 20.81,30.54 20.81,50.02l0 141.66c0,25.38 -6.35,48.84 -19.03,70.38 -12.69,21.54 -29.66,38.81 -50.91,51.79 -21.25,12.99 -45.15,19.48 -71.71,19.48l-566.63 0 0 -708.28 566.63 0c26.56,0 50.46,6.49 71.71,19.48 21.25,12.98 38.22,30.1 50.91,51.35 12.69,21.25 19.03,44.86 19.03,70.83zm-141.66 0l-424.97 0 0 141.66 424.97 0 0 -141.66zm-424.97 424.97l424.97 0 0 -141.66 -424.97 0 0 141.66z"/>
  </g>
 </g>
</svg>
